<?xml version="1.0" standalone="no"?>
<!DOCTYPE svg PUBLIC "-//W3C//DTD SVG 20010904//EN"
 "http://www.w3.org/TR/2001/REC-SVG-20010904/DTD/svg10.dtd">
<svg version="1.0" xmlns="http://www.w3.org/2000/svg"
 width="512.000000pt" height="512.000000pt" viewBox="0 0 512.000000 512.000000"
 preserveAspectRatio="xMidYMid meet">
<g transform="translate(0.000000,512.000000) scale(0.100000,-0.100000)"
fill="#000000" stroke="none">
<path d="M2379 5116 c-2 -2 -33 -6 -69 -10 -148 -14 -374 -65 -510 -115 -639
-234 -1138 -733 -1371 -1371 -48 -131 -93 -319 -110 -455 -14 -117 -14 -429
0 -530 95 -678 452 -1240 1008 -1591 273 -172 602 -291 918 -332 128 -16 472
-16 600 0 520 67 988 296 1333 654 237 245 416 542 514 855 108 347 133 718
71 1094 -38 232 -140 508 -262 712 -90 152 -226 326 -333 427 -27 25 -48 47
-48 49 0 3 -33 33 -72 68 -220 194 -502 354 -788 446 -136 43 -325 83 -445
93 -27 2 -68 7 -90 10 -42 6 -341 14 -346 9z"/>
</g>
</svg>
