<svg width="1640" height="1090" viewBox="0 0 1640 1090" fill="none" xmlns="http://www.w3.org/2000/svg">
<g clip-path="url(#clip0_63_35)">
<g clip-path="url(#clip1_63_35)">
<rect width="2300" height="1122" transform="translate(-330 -16)" fill="#222B34"/>
<rect width="2300" height="1122" transform="translate(-330 -16)" fill="url(#paint0_radial_63_35)" fill-opacity="0.7"/>
<g style="mix-blend-mode:multiply" opacity="0.14">
<path d="M52.5862 -1256.94C88.9398 -1115.89 154.323 -1004.73 295.25 -950.83C432.259 -898.421 519.104 -892.648 643.853 -797.581C725.598 -735.299 877.949 -551.756 956.123 -526.398C1032.67 -501.55 1073.98 -557.243 1138.79 -576.726C1330.39 -634.296 1428.6 -434.392 1621.34 -453.221C1672.73 -458.24 1865.11 -532.62 1904.6 -565.73C1997.12 -643.354 2000.3 -827.937 2020.48 -939.467C2040.82 -1051.83 2074.13 -1157.04 2129.35 -1256.96H2370.08C2296.96 -1192.64 2234.66 -1113.24 2199.67 -1021.39C2108.44 -781.934 2196.33 -529.54 1947.91 -363.296C1869.78 -311.01 1806.13 -301.809 1762.74 -205.743C1704.35 -76.4654 1747.36 41.6736 1737.62 173.073C1732.91 236.58 1705.39 297.455 1700.8 360.655C1689.25 519.453 1791.22 612.438 1664.12 764.626C1581.25 863.854 1486.43 863.67 1501.1 1025.81C1506.2 1082.28 1538.68 1143.03 1551.37 1199.95C1576.46 1312.56 1562.89 1401.73 1675.16 1471.93C1784.04 1540.01 1924.49 1546.56 2017.21 1448.23C2120.5 1338.69 2122.87 1180.82 2159.08 1043.36C2206.79 862.242 2322.38 699.222 2393.54 523.002C2444.77 396.152 2486.3 226.4 2554.48 112.729C2667.66 -75.9554 2824.42 20.9469 2980.75 -48.5371C3079.89 -92.6021 3153.7 -206.192 3226.8 -283.938C3353.32 -418.541 3496.19 -531.947 3663.47 -612.284V-347.078C3620.55 -324.719 3582.19 -294.24 3545.09 -263.497C3341.06 -94.479 3265.27 65.8279 2985.22 147.695C2836.41 191.189 2679.29 160.853 2576.47 302.004C2474.47 442.053 2496.2 625.331 2438.48 780.11C2394.13 899.085 2302.17 1001.92 2267 1122.72C2231.89 1243.32 2253.35 1367.58 2212.06 1488.03C2155.73 1652.33 2004.85 1738.69 1840.99 1652.86C1722.28 1590.68 1668 1489.64 1513.24 1523.63C1410.24 1546.25 1308.58 1584.89 1205.13 1607.21C1103.39 1645.95 1026.85 1702.15 996.251 1810.41C986.254 1845.79 986.765 1893.67 958.428 1919.48C926.175 1948.87 843.37 1952.91 799.182 1964.23C675.025 1996.08 565.005 2075.4 529.937 2202.96H411.614C471.714 2106.77 553.071 2003.93 579.428 1891.36C640.263 1631.44 330.583 1630.67 179.396 1744.3C20.1495 1863.97 48.8529 2048.2 -53.4963 2202.98H-265.661C-190.424 2121.22 -144.625 2031.8 -124.041 1922.31C-107.966 1836.77 -95.664 1621.67 -51.191 1558.59C1.72781 1483.54 67.9682 1536.33 133.964 1548.35C230.397 1565.94 316.589 1528.46 416.551 1547.29C468.083 1557 534.813 1579.85 582.856 1601.31C650.81 1631.67 722.884 1689.54 801.202 1684.75C879.274 1679.97 914.18 1594.05 970.934 1552.55C1059.96 1487.43 1228.14 1488.29 1335.18 1472.07C1376.88 1465.75 1454.04 1446.12 1455.96 1392.67C1458.2 1330.43 1334.67 1381.52 1304.44 1388.29C1233.71 1404.16 1162.96 1411.99 1090.91 1419.56C1046.58 1424.21 1003.76 1420.46 959.244 1434.78C895.411 1455.32 861.771 1523.93 802.385 1543.13C680.656 1582.5 505.334 1452.63 373.037 1443.88C326.503 1440.8 278.481 1451.69 233.967 1448.31C124.273 1439.94 96.3452 1338.47 -37.1351 1389.06C-141.953 1428.8 -176.43 1496.76 -195.137 1602.35C-225.207 1772 -221.27 2030.78 -384.351 2135.31C-435.046 2167.81 -489.414 2178.3 -543.128 2202.98H-1404.03L-1203.35 2169.06C-1028.78 2130.17 -875.309 2062.85 -698.947 2024.72C-576.524 1998.26 -468.034 2006.79 -390.512 1892.51C-255.869 1694.07 -357.137 1465.91 -129.916 1308.52C0.218116 1218.37 79.1679 1310.42 206.752 1340.88C288.416 1360.38 377.933 1365.15 461.31 1380.09C529.06 1392.23 594.137 1412.85 660.439 1425.76C794.225 1451.82 792.368 1401.73 891.8 1346.96C1019.26 1276.72 1169.82 1348.63 1292.93 1242.16C1397.65 1151.62 1367.09 1036.52 1414.56 923.137C1463.91 805.223 1616.75 717.072 1626.91 580.634C1631.09 524.43 1604.39 468.411 1606.92 413.717C1608.88 371.284 1634.93 324.567 1639.17 278.686C1652.6 133.537 1551.61 0.240411 1562.24 -140.972C1568.42 -223.288 1610.63 -312.988 1539.92 -383.982C1484.23 -439.9 1255.32 -478.844 1176.45 -473.724C1102.19 -468.889 1039.01 -435.595 962.202 -450.916C796.326 -484.006 730.494 -663.244 581.632 -727.24C489.238 -766.96 372.18 -772.815 289.538 -707.819C271.952 -693.988 233.028 -658.94 248.818 -635.132C275.278 -595.249 432.851 -644.659 478.874 -645.21C646.24 -647.271 698.016 -495.389 822.439 -425.395C998.005 -326.636 1231.31 -418.541 1400.55 -334.368C1481.17 -294.261 1445.31 -182.242 1462.95 -107.087C1486.82 -5.49216 1561.47 85.9223 1578.01 198.105C1596.19 321.283 1544.7 375.997 1537.54 483.058C1534.84 523.186 1541.58 565.537 1537.66 605.584C1523.99 745.286 1401.36 830.499 1350.97 953.391C1310.97 1050.97 1310.19 1142.38 1208.46 1202.56C1094.23 1270.13 978.523 1226.68 865.79 1271.99C826.233 1287.88 788.839 1319.64 747.161 1328.8C672.944 1345.12 564.76 1304.14 486.484 1293.69C375.995 1278.96 267.709 1285.57 160.586 1248.3C86.92 1222.68 13.8661 1169.37 -68.001 1174.65C-190.098 1182.55 -320.212 1322.23 -356.647 1432.7C-420.868 1627.44 -367.97 1800.3 -621.425 1861.54C-789.831 1902.24 -968.845 1913.62 -1139.7 1943.04C-1292.21 1969.29 -1438.28 2010.95 -1593.81 2023.42C-1711.34 2032.82 -1840.72 2019.87 -1952.29 2032.15C-1973.59 2034.49 -1995.19 2039.19 -2016.06 2043.86V1945.94C-1975.93 1943.51 -1935.68 1936.8 -1895.66 1933.74C-1598.18 1911.05 -1301.9 1892.67 -1008.18 1837.91C-916.722 1820.86 -744.562 1788.42 -672.365 1733.08C-565.976 1651.52 -563.345 1464.83 -487.7 1350.61C-369.173 1171.59 -197.258 1253.48 -113.637 990.255C-78.242 878.848 -10.6145 651.117 -20.9575 540.424C-26.792 477.897 -76.2019 451.703 -93.2159 521.085C-105.966 573.086 -105.293 638.714 -115.942 694.203C-134.139 789.065 -203.399 1003.23 -269.66 1070.9C-328.331 1130.79 -396.979 1132.18 -464.28 1170.04C-666.694 1283.9 -603.738 1561.24 -824.736 1666.41C-977.393 1739.05 -1326.79 1753.44 -1504.05 1766.39C-1674.54 1778.86 -1844.94 1786.49 -2016.06 1782.75V1631.79C-1967.67 1655.29 -1915.79 1653.05 -1863.1 1652.15C-1634.68 1618.53 -1402.56 1606.35 -1174.09 1574.1C-993.244 1548.55 -888.712 1497.57 -792.809 1339.29C-723.57 1224.98 -650.414 990.337 -536.212 926.748C-444.104 875.441 -396.918 894.311 -345.386 778.926C-266.314 601.871 -293.793 270.628 -80.1393 183.273C-8.79884 154.101 56.1768 154.284 119.765 101.651C277.889 -29.2383 207.65 -293.771 447.498 -353.993C509.597 -369.579 606.214 -376.271 666.783 -355.34C734.329 -332.002 769.54 -267.74 839.147 -246.177C1008.53 -193.687 1178.96 -317.823 1305.28 -128.854C1353.81 -56.2486 1462.52 172.094 1464.5 254.675C1467.01 359.125 1401.57 413.615 1384.49 505.499C1371.64 574.677 1389.31 635.083 1371.6 704.771C1346.85 802.101 1208.84 966.407 1137.99 1042.38C1039.38 1148.11 974.116 1111.96 847.266 1131.1C765.501 1143.44 709.787 1185.18 621.596 1179.1C534.466 1173.1 302.716 1120.1 227.928 1079.08C8.82706 958.858 122.213 669.253 130.271 475.306C132.678 417.308 119.031 345.498 126.375 291.886C133.719 238.273 201.795 197.778 236.293 161.078C339.397 51.3844 353.044 -82.6468 489.524 -173.225C520.634 -193.87 612.028 -228.551 624.84 -258.376C637.651 -288.202 591.138 -283.02 573.288 -281.225C517.533 -275.656 442.133 -242.321 399.333 -206.294C299.84 -122.53 292.781 -1.57533 211.587 91.4916C153.344 158.242 41.4883 202.756 32.6957 300.168C27.5548 357.045 53.2798 407.189 62.9292 460.699C104.301 690.45 -98.6018 1032.71 217.728 1162.72C306.429 1199.18 568.29 1243.61 662.703 1236.22C728.433 1231.08 784.82 1189.61 850.775 1183.57C912.67 1177.9 973.525 1189.53 1035.93 1176.96C1185.32 1146.89 1247.89 1004.21 1324.68 890.415C1356.48 843.269 1400.4 800.245 1421.4 746.408C1453.08 665.092 1422.4 583.245 1432.11 500.072C1438.02 449.438 1476.74 399.559 1491.72 351.598C1531.19 225.196 1470.38 132.089 1431.6 18.254C1410.07 -44.9059 1393.63 -115.818 1369.44 -176.632C1312.64 -319.353 1134.75 -291.14 1013.41 -285.835C835.679 -278.063 831.966 -338.305 704.055 -412.971C581.326 -484.618 364.897 -474.438 252.837 -385.41C114.522 -275.513 219.115 -56.8401 66.1525 60.3198C0.197805 110.831 -64.6757 102.345 -140.688 114.605C-366.603 151.061 -363.298 459.679 -459.833 607.399C-502.592 672.844 -546.188 664.888 -608.328 691.47C-863.028 800.449 -741.196 1295.67 -1076.74 1385.88C-1201.51 1419.44 -1356.72 1420.66 -1487.16 1436.52C-1608.75 1451.29 -1820.22 1504.55 -1930.32 1466.57C-1960.37 1456.2 -1986.03 1435.17 -2016.04 1427.85V930.074C-1902.98 1013.57 -1773.11 1084.24 -1630.43 1097.32C-1533.84 1106.17 -1438.61 1103.68 -1342.79 1123.84C-1233.95 1146.73 -1168.71 1193.22 -1067.54 1109.48C-912.295 980.973 -865.863 776.091 -784.568 604.992C-726.263 482.263 -663.185 464.065 -571.627 381.362C-479.968 298.577 -487.965 238.171 -454.447 131.334C-397.979 -48.5984 -199.992 68.9695 -76.6916 -9.08268C63.6228 -97.8859 1.40141 -327.085 11.8056 -467.318C22.5567 -612.325 115.603 -716.999 47.8941 -870.717C-12.8585 -1008.6 -172.655 -1036.51 -236.55 -1165.65C-249.932 -1192.7 -261.459 -1226.93 -265.702 -1256.86H52.5453L52.5862 -1256.94ZM1362.3 399.58C1373.78 400.62 1378.33 384.81 1381.76 376.201C1436.15 239.803 1325.66 -47.6192 1197.73 -119.266C1121.12 -162.168 992.028 -164.779 903.857 -176.285C762.257 -194.768 683.063 -235.161 560.66 -130.71C520.267 -96.2335 470.857 -44.8243 431.974 -6.43065C353.044 71.4788 261.467 200.981 213.566 301.494C171.399 389.971 174.52 516.27 170.868 613.764C165.748 750.631 146.306 861.671 265.078 956.206C374.302 1043.15 498.255 1119.51 642.853 1120.25C702.749 1120.55 760.136 1099.52 818.787 1090.32C882.926 1080.26 947.106 1083.81 1007.49 1054.62C1078.38 1020.37 1250.18 832.416 1289.55 761.382C1361.44 631.635 1314.31 567.924 1312.99 438.361C1312.36 376.282 1323.78 329.382 1308.03 264.141C1254.77 43.4077 1018.83 -81.3412 805.323 -89.9502C648.239 -96.2743 413.328 97.2854 346.924 234.948C315.691 299.699 324.892 350.19 317.262 417.45C307.878 500.113 269.137 587.244 277.481 670.457C283.703 732.352 327.136 822.339 370.67 866.954C417.653 915.14 618.352 1030.71 683.002 1024C719.743 1020.18 706.85 1003.94 682.369 991.826C568.392 935.418 485.81 936.092 405.902 819.483C290.129 650.546 354.248 557.724 371.017 377.343C379.626 284.602 364.632 245.332 428.098 165.137C494.97 80.6182 713.888 -48.5576 821.725 -49.5369C971.729 -50.9037 1166.15 68.2351 1240.61 196.962C1304.77 307.9 1280.08 357.942 1284.61 475.286C1288.12 565.925 1311.89 652.79 1266.5 738.35C1225.35 815.912 1084.69 923.81 1011 976.546C924.135 1038.69 907.223 1019.1 811.3 1037.97C764.012 1047.27 702.749 1080.1 658.276 1081.14C587.364 1082.81 391.458 963.469 336.071 913.835C208.017 799.102 229.927 598.647 248.961 442.992C279.337 194.453 401.72 52.3432 602.134 -85.1356C704.708 -155.497 748.773 -154.395 869.462 -133.648C983.868 -113.982 1134.85 -86.3596 1215.31 1.95404C1264.6 56.0357 1362.3 236.743 1362.3 307.859V399.661V399.58ZM794.327 17.2544C613.803 28.8827 450.477 154.57 413.532 334.155C367.774 556.48 349.332 766.747 572.105 893.965C791.083 1019.02 917.811 1006.7 1111.27 844.187C1245.18 731.679 1262.48 551.074 1234.63 386.483C1201.28 189.312 998.984 4.07569 794.347 17.2544H794.327Z" fill="#28323E"/>
<path d="M2880.09 -1256.94C2921.67 -1227.99 2946.94 -1188.96 2969.28 -1144.17C3003.1 -1076.29 3026.52 -961.336 3129.87 -992.876C3200.13 -1014.32 3250.26 -1126.68 3294.57 -1183.15C3316.25 -1210.79 3339.67 -1233.48 3365.62 -1256.94H3634.91C3531.07 -1207.49 3436.68 -1161.32 3364.01 -1068.83C3305.4 -994.242 3280.06 -916.904 3195.52 -861.945C3013.88 -743.847 2995.47 -956.359 2918.48 -1064.81C2852.67 -1157.51 2709.75 -1106.83 2641.22 -1040.9C2557.11 -959.949 2470.96 -835.282 2422.4 -729.301C2342.13 -554.082 2335.25 -362.154 2204.9 -212.394C2131.41 -127.977 2043.81 -88.6246 2009.01 28.2905C1942.59 251.41 1992.4 572.126 1874.02 770.521C1829.32 845.411 1685.99 960.612 1697.23 1049.99C1705.86 1118.68 1777.12 1092.11 1813.02 1060.41C1954.5 935.5 2112.4 579.817 2129.29 393.377C2133.76 344.069 2129.13 287.397 2133.49 238.456C2147.94 76.2112 2320.63 -25.322 2397.84 -158.17C2509.84 -350.893 2448.68 -611.387 2604.64 -795.95C2649.5 -849.052 2750.79 -924.31 2824.09 -909.213C2905.41 -892.444 2917.85 -658.512 3037.62 -645.415C3120.26 -636.377 3220.1 -722.569 3280.02 -773.407C3408.01 -882.019 3509.04 -1024.13 3663.49 -1097.84V-877.511C3519.18 -802.743 3382.43 -703.903 3257.62 -599.962C3194.5 -547.39 3089.07 -428.394 3008.14 -421.05C2912.28 -412.36 2873.7 -502.305 2761.85 -459.22C2702.56 -436.371 2658.72 -380.311 2630.49 -325.372C2568.19 -204.193 2519.19 -52.0466 2464.65 75.9256C2390.7 249.452 2319.53 425.365 2244.31 598.157C2190.04 722.825 2116.79 835.945 2073.41 965.835C2028.61 1099.99 1985.94 1435.43 1775.22 1380.01C1649.76 1347 1655.59 1241.08 1611.94 1143.44C1602.8 1123 1587.56 1104.13 1579.52 1082.02C1534.37 957.756 1628.36 929.4 1696.96 854.612C1756.43 789.82 1823.18 692.428 1823.65 601.605C1824.02 530.387 1796.62 467.635 1787.73 400.497C1775.06 304.839 1822.51 246.167 1834.99 156.242C1853.93 19.7426 1809.37 -111.84 1936.28 -207.6C2018.82 -269.883 2099.77 -313.356 2165.95 -398.181C2267.91 -528.908 2247.41 -709.493 2286.37 -865.291C2326.32 -1025.05 2418.04 -1159.02 2549.6 -1256.92H2880.09V-1256.94Z" fill="#28323E"/>
<path d="M-604.31 -1256.94C-554.92 -1172.95 -516.751 -1082.66 -470.361 -997.16C-396.368 -860.762 -279.392 -713.715 -261.643 -557.142C-253.218 -482.905 -255.217 -377.291 -274.985 -305.4C-315.541 -157.966 -413.035 -230.224 -520.444 -199.97C-665.715 -159.047 -822.269 140.534 -916.866 260.427C-1145.82 550.624 -1594.9 765.053 -1913.61 478.712L-2016.02 395.499V122.133C-1887.36 210.61 -1804.57 334.175 -1641.49 365.735C-1283.91 434.913 -1092.92 345.13 -886.591 62.2165C-797.829 -59.4927 -650.456 -334.185 -499.146 -366.357C-435.925 -379.801 -394.512 -361.053 -376.804 -443.94C-347.468 -581.255 -511.1 -869.861 -623.446 -946.077C-725.754 -1015.48 -768.085 -992.814 -775.837 -871.534C-786.364 -706.983 -777.102 -569.443 -814.374 -404.138C-875.983 -131.017 -1077.15 174.786 -1389.67 158.833C-1671.68 144.43 -1803.49 36.981 -1999.62 -141.095C-2004.68 -145.685 -2007.94 -151.315 -2016 -151.213V-465.38C-1995.56 -454.201 -1976.98 -433.699 -1960.86 -416.481C-1809.24 -254.46 -1747.29 -129.834 -1499.83 -102.293C-1173.18 -65.9189 -943.978 -270.393 -938.694 -597.8C-936.613 -726.609 -983.596 -880.897 -951.159 -1001.97C-926.74 -1093.1 -879.798 -1178.66 -828.695 -1256.92H-604.29L-604.31 -1256.94Z" fill="#14181F" fill-opacity="0.2"/>
<path d="M2549.6 -1256.94C2418.04 -1159.04 2326.32 -1025.07 2286.38 -865.312C2247.41 -709.514 2267.91 -528.929 2165.95 -398.202C2099.79 -313.357 2018.84 -269.883 1936.28 -207.621C1809.35 -111.861 1853.93 19.7015 1834.99 156.221C1822.53 246.167 1775.06 304.818 1787.73 400.476C1796.62 467.614 1824.02 530.366 1823.65 601.584C1823.18 692.407 1756.41 789.799 1696.97 854.591C1628.36 929.359 1534.37 957.715 1579.52 1081.99C1587.56 1104.11 1602.8 1122.96 1611.94 1143.42C1655.57 1241.08 1649.76 1346.98 1775.22 1379.98C1985.94 1435.43 2028.62 1099.99 2073.41 965.814C2116.79 835.924 2190.04 722.804 2244.31 598.136C2319.53 425.344 2390.7 249.431 2464.66 75.9048C2519.19 -52.0674 2568.19 -204.214 2630.49 -325.393C2658.72 -380.331 2702.57 -436.392 2761.85 -459.241C2873.68 -502.326 2912.28 -412.381 3008.14 -421.071C3089.07 -428.395 3194.5 -547.411 3257.62 -599.983C3382.43 -703.924 3519.18 -802.764 3663.49 -877.532V-612.326C3496.2 -531.989 3353.34 -418.603 3226.82 -283.98C3153.72 -206.214 3079.91 -92.644 2980.77 -48.579C2824.44 20.905 2667.68 -75.9972 2554.5 112.687C2486.32 226.358 2444.79 396.11 2393.56 522.961C2322.4 699.18 2206.81 862.2 2159.1 1043.32C2122.89 1180.77 2120.52 1338.65 2017.23 1448.18C1924.49 1546.51 1784.05 1539.99 1675.18 1471.89C1562.91 1401.69 1576.48 1312.54 1551.39 1199.91C1538.7 1142.99 1506.24 1082.24 1501.12 1025.77C1486.45 863.628 1581.27 863.812 1664.14 764.584C1791.24 612.396 1689.29 519.431 1700.82 360.614C1705.41 297.413 1732.93 236.538 1737.64 173.031C1747.37 41.6523 1704.37 -76.4868 1762.76 -205.785C1806.15 -301.851 1869.8 -311.052 1947.93 -363.338C2196.37 -529.581 2108.46 -781.956 2199.69 -1021.44C2234.68 -1113.26 2296.98 -1192.68 2370.1 -1257H2549.62L2549.6 -1256.94Z" fill="#14181F" fill-opacity="0.2"/>
<path d="M-2016.02 1427.76C-1986.01 1435.09 -1960.35 1456.12 -1930.3 1466.48C-1820.2 1504.47 -1608.73 1451.2 -1487.14 1436.43C-1356.7 1420.6 -1201.49 1419.36 -1076.72 1385.8C-741.176 1295.57 -863.028 800.346 -608.308 691.387C-546.168 664.805 -502.593 672.761 -459.813 607.317C-363.278 459.597 -366.583 150.978 -140.668 114.523C-64.6762 102.262 0.217602 110.749 66.1723 60.2371C219.135 -56.9228 114.542 -275.595 252.857 -385.493C364.897 -474.52 581.325 -484.7 704.075 -413.054C831.965 -338.388 835.699 -278.146 1013.43 -285.918C1134.77 -291.222 1312.64 -319.456 1369.46 -176.714C1393.65 -115.901 1410.09 -44.9885 1431.62 18.1713C1470.38 132.006 1531.21 225.093 1491.74 351.515C1476.76 399.477 1438.04 449.356 1432.13 499.99C1422.42 583.162 1453.1 664.989 1421.42 746.325C1400.42 800.183 1356.52 843.187 1324.7 890.332C1247.91 1004.13 1185.34 1146.81 1035.95 1176.88C973.545 1189.44 912.69 1177.8 850.795 1183.49C784.861 1189.55 728.474 1231 662.723 1236.14C568.31 1243.53 306.469 1199.09 217.748 1162.64C-98.5819 1032.65 104.301 690.367 62.9491 460.617C53.3201 407.086 27.5951 356.962 32.7156 300.085C41.5082 202.673 153.364 158.159 211.607 91.4091C292.801 -1.65788 299.86 -122.612 399.353 -206.377C442.153 -242.404 517.553 -275.738 573.308 -281.308C591.158 -283.082 637.773 -288.448 624.86 -258.459C611.946 -228.47 520.654 -193.973 489.543 -173.307C353.064 -82.7294 339.416 51.3017 236.312 160.995C201.815 197.695 133.678 238.68 126.395 291.803C119.112 344.926 132.698 417.225 130.291 475.224C122.233 669.171 8.84698 958.776 227.948 1079C302.736 1120.02 534.465 1173.02 621.616 1179.02C709.807 1185.1 765.521 1143.36 847.286 1131.02C974.136 1111.88 1039.4 1148.03 1138.01 1042.3C1208.88 966.324 1346.89 802.039 1371.62 704.688C1389.33 635 1371.66 574.594 1384.51 505.416C1401.59 413.533 1467.03 359.063 1464.52 254.592C1462.54 172.011 1353.83 -56.3312 1305.3 -128.936C1178.96 -317.886 1008.55 -193.769 839.167 -246.26C769.56 -267.823 734.349 -332.105 666.803 -355.423C606.254 -376.333 509.617 -369.662 447.518 -354.076C207.69 -293.833 277.909 -29.321 119.785 101.568C56.2168 154.202 -8.75852 154.018 -80.1194 183.191C-293.774 270.546 -266.294 601.788 -345.366 778.844C-396.898 894.229 -444.084 875.358 -536.192 926.666C-650.374 990.274 -723.53 1224.9 -792.79 1339.2C-888.692 1497.49 -993.224 1548.47 -1174.07 1574.01C-1402.54 1606.29 -1634.64 1618.45 -1863.08 1652.07C-1915.77 1652.96 -1967.65 1655.23 -2016.04 1631.71V1427.7L-2016.02 1427.76Z" fill="#14181F" fill-opacity="0.2"/>
<path d="M3663.47 260.856C3501.96 323.261 3367.01 436.504 3209.25 506.376C2986.87 604.89 2799.45 584.449 2660.56 826.745C2499.17 1108.27 2648.73 1455.79 2524.39 1698.36C2456.27 1831.24 2185.52 1946.55 2041.69 1933.63C1940.87 1924.58 1860.19 1840.32 1759.94 1847.87C1659.69 1855.42 1569.97 1986.84 1505.2 2054.16C1455.46 2105.85 1403.3 2155.04 1350.06 2202.98H729.881C736.98 2189.41 750.689 2183.38 764.419 2178.36C807.872 2162.49 866.891 2158.83 914.362 2144.7C1009.55 2116.36 1225.73 2010.38 1227.98 1894.89C1228.71 1856.89 1206.76 1826.1 1228.31 1785.42C1324.15 1604.41 1598.82 1637.07 1754.09 1711.21C1810.62 1738.2 1858.05 1782.55 1917.23 1805.11C2109.87 1878.59 2305.49 1730.12 2349.15 1543.52C2372.83 1442.31 2356.33 1335.8 2384.36 1231.92C2408.59 1142.16 2474.24 1070.67 2504.76 981.034C2550.07 848.002 2536.1 710.85 2595.03 577.615C2694.02 353.883 2850.86 382.525 3050.48 323.119C3283.29 253.839 3467.07 114.993 3663.45 -20.6906V260.836L3663.47 260.856Z" fill="#28323E"/>
<path d="M3663.47 -20.6716C3467.11 115.012 3283.33 253.858 3050.5 323.138C2850.88 382.544 2694.04 353.901 2595.05 577.633C2536.12 710.869 2550.09 848.021 2504.78 981.053C2474.24 1070.69 2408.59 1142.18 2384.38 1231.94C2356.33 1335.82 2372.83 1442.31 2349.17 1543.53C2305.51 1730.14 2109.89 1878.61 1917.25 1805.13C1858.07 1782.57 1810.64 1738.22 1754.11 1711.23C1598.84 1637.09 1324.15 1604.43 1228.32 1785.44C1206.78 1826.12 1228.73 1856.91 1228 1894.91C1225.75 2010.4 1009.57 2116.38 914.382 2144.72C866.91 2158.85 807.892 2162.48 764.439 2178.38C750.709 2183.4 737 2189.43 729.901 2203H529.976C565.024 2075.42 675.064 1996.12 799.222 1964.27C843.389 1952.93 926.215 1948.89 958.468 1919.52C986.804 1893.69 986.273 1845.83 996.29 1810.45C1026.91 1702.19 1103.45 1645.99 1205.17 1607.25C1308.62 1584.93 1410.28 1546.29 1513.28 1523.66C1668.04 1489.68 1722.34 1590.72 1841.03 1652.9C2004.87 1738.73 2155.77 1652.37 2212.1 1488.07C2253.39 1367.6 2231.93 1243.36 2267.04 1122.75C2302.21 1001.96 2394.17 899.125 2438.52 780.149C2496.23 625.371 2474.51 442.093 2576.51 302.044C2679.33 160.872 2836.43 191.228 2985.25 147.734C3265.31 65.8673 3341.1 -94.4397 3545.13 -263.458C3582.23 -294.201 3620.61 -324.679 3663.51 -347.038V-20.6308L3663.47 -20.6716Z" fill="#14181F" fill-opacity="0.2"/>
<path d="M-412.545 -1256.94C-375.539 -1148.31 -338.267 -1007.54 -244.914 -932.918C-175.186 -877.164 -56.4141 -860.19 -42.3174 -756.066C-26.4254 -638.723 -83.6078 -520.421 -94.2569 -402.118C-102.009 -316.049 -88.606 -94.3566 -206.847 -78.1382C-329.25 -61.3486 -434.7 -117.654 -541.68 -15.162C-628.708 68.2147 -590.294 134.271 -626.832 228.134C-668.897 336.236 -779.244 374.099 -842.648 461.128C-929.983 581.001 -935.695 801.612 -1089.9 858.529C-1160.55 884.601 -1257.45 854.245 -1332.67 848.41C-1386.89 844.208 -1441.71 846.207 -1495.99 844.453C-1644.96 839.658 -1758.12 860.651 -1886.76 774.173C-1930.42 744.837 -1969.28 704.363 -2016.04 681.086V395.479L-1913.61 478.693C-1594.9 765.034 -1145.82 550.604 -916.865 260.408C-822.268 140.514 -665.715 -159.067 -520.443 -199.99C-413.035 -230.244 -315.541 -157.986 -274.985 -305.42C-255.217 -377.311 -253.238 -482.924 -261.643 -557.162C-279.391 -713.735 -396.368 -860.782 -470.36 -997.18C-516.751 -1082.7 -554.92 -1172.99 -604.31 -1256.96H-412.545V-1256.94Z" fill="#28323E"/>
<path d="M-2016.02 2202.98V2043.86C-1995.15 2039.19 -1973.55 2034.49 -1952.25 2032.15C-1840.66 2019.87 -1711.3 2032.84 -1593.77 2023.42C-1438.24 2010.97 -1292.17 1969.29 -1139.66 1943.04C-968.805 1913.62 -789.791 1902.24 -621.385 1861.54C-367.909 1800.3 -420.828 1627.44 -356.608 1432.7C-320.172 1322.23 -190.058 1182.55 -67.9613 1174.65C13.8854 1169.37 86.9395 1222.66 160.626 1248.3C267.749 1285.57 376.035 1278.94 486.524 1293.69C564.78 1304.14 672.963 1345.12 747.201 1328.8C788.879 1319.64 826.273 1287.88 865.83 1271.99C978.583 1226.68 1094.27 1270.13 1208.5 1202.56C1310.23 1142.38 1311.01 1050.97 1351.01 953.391C1401.4 830.519 1524.03 745.306 1537.7 605.584C1541.62 565.537 1534.9 523.186 1537.58 483.058C1544.74 375.997 1596.23 321.283 1578.05 198.105C1561.49 85.9223 1486.86 -5.47175 1462.99 -107.087C1445.33 -182.242 1481.21 -294.261 1400.59 -334.368C1231.34 -418.561 998.065 -326.637 822.479 -425.395C698.056 -495.389 646.259 -647.271 478.914 -645.21C432.891 -644.639 275.317 -595.25 248.858 -635.132C233.068 -658.94 271.992 -693.988 289.578 -707.819C372.22 -772.815 489.278 -766.96 581.671 -727.241C730.534 -663.244 796.366 -484.006 962.242 -450.916C1039.05 -435.595 1102.23 -468.909 1176.49 -473.724C1255.36 -478.844 1484.27 -439.879 1539.96 -383.982C1610.69 -312.989 1568.48 -223.267 1562.28 -140.972C1551.65 0.240411 1652.63 133.537 1639.21 278.686C1634.97 324.547 1608.92 371.284 1606.96 413.717C1604.43 468.411 1631.15 524.451 1626.95 580.634C1616.77 717.072 1463.95 805.223 1414.6 923.137C1367.13 1036.52 1397.71 1151.64 1292.97 1242.16C1169.84 1348.61 1019.3 1276.72 891.84 1346.96C792.429 1401.73 794.265 1451.82 660.478 1425.76C594.177 1412.85 529.099 1392.23 461.349 1380.09C377.973 1365.15 288.435 1360.38 206.792 1340.88C79.2077 1310.42 0.257961 1218.39 -129.877 1308.52C-357.097 1465.91 -255.829 1694.07 -390.472 1892.51C-468.014 2006.79 -576.504 1998.26 -698.907 2024.72C-875.289 2062.85 -1028.74 2130.17 -1203.31 2169.06L-1403.99 2202.98H-2016.02Z" fill="#14181F" fill-opacity="0.2"/>
<path d="M-265.663 -1256.94C-261.44 -1227.01 -249.893 -1192.76 -236.51 -1165.73C-172.616 -1036.59 -12.8193 -1008.69 47.9333 -870.799C115.642 -717.082 22.596 -612.407 11.845 -467.4C1.44075 -327.167 63.6418 -97.968 -76.6523 -9.16474C-199.973 68.8875 -397.939 -48.6805 -454.408 131.252C-487.946 238.089 -479.929 298.495 -571.588 381.28C-663.166 463.983 -726.224 482.181 -784.528 604.91C-865.824 776.009 -912.235 980.89 -1067.5 1109.39C-1168.67 1193.14 -1233.91 1146.66 -1342.75 1123.75C-1438.57 1103.6 -1533.8 1106.09 -1630.39 1097.23C-1773.07 1084.16 -1902.92 1013.49 -2016 929.991V681.106C-1969.24 704.383 -1930.38 744.857 -1886.72 774.193C-1758.08 860.691 -1644.92 839.678 -1495.95 844.472C-1441.65 846.227 -1386.85 844.207 -1332.63 848.43C-1257.41 854.265 -1160.53 884.621 -1089.86 858.549C-935.655 801.632 -929.943 581 -842.608 461.148C-779.204 374.119 -668.837 336.256 -626.792 228.154C-590.275 134.291 -628.669 68.2347 -541.64 -15.1421C-434.66 -117.634 -329.231 -61.3491 -206.807 -78.1183C-88.5662 -94.3367 -101.969 -316.008 -94.2172 -402.098C-83.5477 -520.401 -26.3651 -638.703 -42.2775 -756.046C-56.3742 -860.15 -175.146 -877.144 -244.875 -932.898C-338.227 -1007.52 -375.499 -1148.29 -412.505 -1256.92H-265.622L-265.663 -1256.94Z" fill="#14181F" fill-opacity="0.2"/>
<path d="M3663.47 260.856V530.142C3578.83 567.944 3494.04 605.889 3407.44 639.285C3082.4 764.584 2779.17 786.8 2725.58 1201.85C2694.08 1445.65 2793.33 1728.57 2635.12 1935.57C2518.08 2088.7 2212.59 2106.3 2040.55 2057.18C1916.49 2021.76 1829.4 1939.96 1721.24 2062.12C1682.09 2106.32 1651.8 2159.67 1611.18 2202.98L1350.06 2202.98C1403.32 2155.04 1455.46 2105.85 1505.2 2054.16C1569.97 1986.84 1660.1 1855.4 1759.94 1847.87C1859.78 1840.34 1940.87 1924.58 2041.69 1933.63C2185.52 1946.55 2456.27 1831.24 2524.39 1698.36C2648.73 1455.77 2499.17 1108.25 2660.56 826.745C2799.47 584.449 2986.87 604.91 3209.25 506.376C3366.99 436.504 3501.94 323.261 3663.47 260.856Z" fill="#14181F" fill-opacity="0.2"/>
<path d="M3663.47 795.348C3443.41 830.988 3169.41 907.796 3018.71 1082.89C2885.31 1237.88 2951.57 1418.95 2945.54 1605.41C2942.01 1714.63 2925.46 1833.14 2894.35 1937.75C2866.34 2031.98 2824.32 2121.38 2769.93 2202.98H2157.91C2085.63 2167.12 1956.66 2088.96 1875.33 2101.98C1820.8 2110.69 1809.17 2161.16 1786.63 2202.98H1611.18C1651.8 2159.67 1682.09 2106.32 1721.24 2062.12C1829.4 1939.96 1916.49 2021.76 2040.55 2057.18C2212.59 2106.3 2518.08 2088.7 2635.12 1935.57C2793.33 1728.57 2694.08 1445.65 2725.58 1201.85C2779.19 786.8 3082.42 764.584 3407.44 639.285C3494.04 605.889 3578.83 567.944 3663.47 530.142V795.348Z" fill="#28323E"/>
<path d="M3634.91 -1256.94H3663.47V-1097.82C3509.02 -1024.11 3407.99 -881.999 3280 -773.387C3220.11 -722.549 3120.27 -636.357 3037.6 -645.394C2917.83 -658.491 2905.41 -892.403 2824.07 -909.193C2750.79 -924.31 2649.5 -849.032 2604.62 -795.929C2448.68 -611.366 2509.84 -350.852 2397.82 -158.149C2320.61 -25.3016 2147.92 76.2317 2133.47 238.477C2129.11 287.438 2133.74 344.09 2129.27 393.398C2112.38 579.817 1954.48 935.499 1813 1060.43C1777.1 1092.13 1705.84 1118.7 1697.21 1050.01C1685.97 960.653 1829.3 845.452 1874 770.541C1992.38 572.126 1942.57 251.41 2008.99 28.3109C2043.79 -88.6042 2131.39 -127.957 2204.88 -212.374C2335.23 -362.134 2342.11 -554.061 2422.39 -729.281C2470.94 -835.282 2557.09 -959.929 2641.2 -1040.88C2709.73 -1106.81 2852.65 -1157.51 2918.46 -1064.79C2995.46 -956.338 3013.86 -743.847 3195.5 -861.925C3280.04 -916.884 3305.38 -994.222 3363.99 -1068.81C3436.68 -1161.28 3531.05 -1207.47 3634.89 -1256.92L3634.91 -1256.94Z" fill="#14181F" fill-opacity="0.2"/>
<path d="M-2016.02 122.133L-2016.02 -151.234C-2007.96 -151.316 -2004.7 -145.705 -1999.64 -141.115C-1803.51 36.9604 -1671.7 144.409 -1389.69 158.812C-1077.17 174.765 -875.983 -131.038 -814.394 -404.159C-777.101 -569.464 -786.384 -706.984 -775.857 -871.554C-768.105 -992.815 -725.754 -1015.48 -623.466 -946.098C-511.1 -869.882 -347.468 -581.276 -376.824 -443.96C-394.531 -361.073 -435.944 -379.821 -499.166 -366.377C-650.476 -334.226 -797.849 -59.534 -886.611 62.1956C-1092.92 345.109 -1283.93 434.892 -1641.51 365.714C-1804.59 334.154 -1887.38 210.589 -2016.04 122.112L-2016.02 122.133Z" fill="#28323E"/>
<path d="M901.245 -1256.94C936.62 -1172.77 940.108 -1074.21 982.092 -993.018C1062.25 -838.015 1382.66 -611.774 1507.22 -832.527C1576.58 -955.44 1582.56 -1122.11 1619.34 -1256.94H1953.91C1923.94 -1180.4 1905.58 -1100.08 1896.81 -1018.23C1874.53 -810.25 1913.68 -640.742 1656.88 -589.027C1550.47 -567.586 1483.47 -575.114 1384 -615.65C1304.3 -648.127 1232.57 -705.534 1140.83 -672.567C1077.91 -649.963 1044.93 -578.501 970.525 -638.764C910.731 -687.194 851.264 -762.146 793.204 -816.411C703.83 -899.91 617.087 -957.521 520.491 -1029.23C436.421 -1091.63 382.563 -1152.79 354.492 -1256.96H901.225L901.245 -1256.94Z" fill="#28323E"/>
<path d="M-828.715 -1256.94C-879.839 -1178.68 -926.76 -1093.12 -951.179 -1001.99C-983.616 -880.918 -936.654 -726.629 -938.715 -597.82C-943.998 -270.413 -1173.18 -65.9393 -1499.85 -102.313C-1747.29 -129.854 -1809.24 -254.48 -1960.88 -416.501C-1977 -433.719 -1995.58 -454.221 -2016.02 -465.401V-808.129C-2006.8 -810.21 -2007.43 -802.947 -2003.88 -798.031C-1929.73 -695.498 -1816.06 -554.551 -1722.32 -471.46C-1558.38 -326.168 -1297.89 -260.376 -1166.67 -483.068C-1028.37 -717.775 -1117.57 -1011.48 -1175.52 -1256.94H-828.715Z" fill="#28323E"/>
<path d="M-1175.52 -1256.94C-1117.55 -1011.48 -1028.35 -717.755 -1166.67 -483.068C-1297.89 -260.376 -1558.38 -326.168 -1722.32 -471.46C-1816.08 -554.551 -1929.73 -695.498 -2003.88 -798.031C-2007.43 -802.947 -2006.8 -810.21 -2016.02 -808.129V-1240.62C-2003.84 -1240.56 -2000.58 -1226.46 -1996.23 -1217.59C-1931.56 -1085.43 -1903.84 -967.212 -1799.9 -850.868C-1613.6 -642.334 -1285.32 -592.394 -1269.2 -952.809C-1264.37 -1060.87 -1289.64 -1161.61 -1338.73 -1256.94H-1175.52Z" fill="#14181F" fill-opacity="0.2"/>
<path d="M354.512 -1256.94C382.583 -1152.77 436.44 -1091.61 520.51 -1029.21C617.107 -957.501 703.849 -899.89 793.224 -816.391C851.304 -762.146 910.751 -687.174 970.545 -638.744C1044.95 -578.481 1077.91 -649.944 1140.85 -672.547C1232.59 -705.494 1304.32 -648.108 1384.02 -615.63C1483.49 -575.094 1550.49 -567.566 1656.9 -589.007C1913.7 -640.723 1874.55 -810.23 1896.83 -1018.21C1905.6 -1100.06 1923.96 -1180.38 1953.93 -1256.92H2129.37C2074.15 -1157 2040.84 -1051.79 2020.5 -939.426C2000.3 -827.897 1997.14 -643.313 1904.62 -565.69C1865.15 -532.559 1672.77 -458.2 1621.36 -453.181C1428.62 -434.351 1330.41 -634.276 1138.81 -576.685C1073.97 -557.203 1032.68 -501.51 956.142 -526.358C877.988 -551.736 725.617 -735.258 643.872 -797.541C519.123 -892.587 432.278 -898.381 295.269 -950.789C154.342 -1004.69 88.9791 -1115.85 52.6051 -1256.9H354.532L354.512 -1256.94Z" fill="#14181F" fill-opacity="0.2"/>
<path d="M3663.47 795.348V1076.87C3526.99 1075.65 3380.25 1103.46 3263.95 1177.16C3140.38 1255.44 3104.15 1333.72 3096.38 1478.8C3088.26 1630.71 3100.09 1783.34 3079.48 1935.2C3067.31 2025.03 3043.56 2117.26 3014.73 2202.98H2769.93C2824.34 2121.38 2866.34 2031.98 2894.35 1937.75C2925.46 1833.12 2942.01 1714.63 2945.54 1605.41C2951.55 1418.95 2885.31 1237.88 3018.71 1082.89C3169.41 907.796 3443.41 830.988 3663.47 795.348Z" fill="#14181F" fill-opacity="0.2"/>
<path d="M-2016.02 1945.93V1782.73C-1844.88 1786.46 -1674.5 1778.83 -1504.01 1766.37C-1326.75 1753.42 -977.353 1739.03 -824.696 1666.39C-603.698 1561.22 -666.674 1283.88 -464.24 1170.02C-396.939 1132.16 -328.292 1130.77 -269.62 1070.88C-203.339 1003.23 -134.1 789.064 -115.902 694.182C-105.253 638.692 -105.927 573.044 -93.1762 521.063C-76.1622 451.702 -26.7727 477.876 -20.9178 540.403C-10.5747 651.096 -78.2227 878.827 -113.597 990.234C-197.219 1253.46 -369.133 1171.57 -487.66 1350.59C-563.285 1464.83 -565.916 1651.49 -672.325 1733.06C-744.523 1788.4 -916.682 1820.84 -1008.14 1837.89C-1301.86 1892.65 -1598.14 1911.03 -1895.62 1933.71C-1935.67 1936.77 -1975.89 1943.49 -2016.02 1945.91V1945.93Z" fill="#14181F" fill-opacity="0.2"/>
<path d="M1619.34 -1256.94C1582.56 -1122.11 1576.58 -955.461 1507.22 -832.527C1382.66 -611.774 1062.25 -837.995 982.092 -993.018C940.108 -1074.21 936.62 -1172.77 901.245 -1256.94H1619.34Z" fill="#14181F" fill-opacity="0.2"/>
<path d="M3663.47 1076.87V1272.72L3531.4 1277.33C3232.35 1314.54 3264.01 1747.7 3271.94 1968.21C3274.76 2046.55 3274.39 2125.58 3288.1 2202.98L3014.73 2202.98C3043.56 2117.26 3067.31 2025.03 3079.48 1935.2C3100.09 1783.34 3088.24 1630.69 3096.38 1478.8C3104.15 1333.7 3140.38 1255.44 3263.95 1177.16C3380.27 1103.48 3526.99 1075.67 3663.47 1076.87Z" fill="#28323E"/>
<path d="M-543.109 2202.98C-489.374 2178.3 -435.027 2167.81 -384.332 2135.31C-221.25 2030.78 -225.188 1772 -195.117 1602.35C-176.41 1496.76 -141.933 1428.8 -37.1156 1389.06C96.3646 1338.47 124.313 1439.92 233.986 1448.31C278.5 1451.71 326.523 1440.8 373.056 1443.88C505.353 1452.63 680.675 1582.5 802.405 1543.13C861.79 1523.93 895.431 1455.3 959.264 1434.78C1003.78 1420.46 1046.6 1424.21 1090.93 1419.56C1162.98 1411.99 1233.73 1404.16 1304.46 1388.29C1334.69 1381.51 1458.22 1330.43 1455.97 1392.67C1454.04 1446.12 1376.88 1465.75 1335.2 1472.07C1228.14 1488.29 1059.98 1487.43 970.953 1552.55C914.199 1594.07 879.294 1679.97 801.221 1684.75C722.904 1689.54 650.829 1631.66 582.875 1601.31C534.832 1579.85 468.102 1557 416.57 1547.29C316.608 1528.46 230.416 1565.93 133.983 1548.35C67.9876 1536.31 1.74723 1483.54 -51.1716 1558.59C-95.6446 1621.67 -107.946 1836.77 -124.022 1922.31C-144.606 2031.8 -190.405 2121.24 -265.642 2202.98H-543.109Z" fill="#14181F" fill-opacity="0.2"/>
<path d="M-1844.66 -1256.94C-1834.23 -1230.75 -1823.4 -1204.22 -1810.06 -1179.34C-1761.06 -1087.8 -1685.72 -987.979 -1577.53 -1077.54C-1521.72 -1123.74 -1511.38 -1187.35 -1514.17 -1256.94H-1338.73C-1289.64 -1161.61 -1264.37 -1060.85 -1269.2 -952.809C-1285.32 -592.373 -1613.58 -642.334 -1799.9 -850.868C-1903.82 -967.191 -1931.56 -1085.41 -1996.23 -1217.59C-2000.58 -1226.46 -2003.84 -1240.56 -2016.02 -1240.62V-1256.94H-1844.66Z" fill="#28323E"/>
<path d="M3663.47 1272.72L3663.47 1464.48C3586.95 1466.56 3529.99 1485.6 3484.64 1548.82C3394.51 1674.47 3380.06 1892.67 3439.65 2033.09C3480.46 2129.27 3562.3 2165.99 3663.49 2170.34V2202.98H3288.12C3274.41 2125.58 3274.8 2046.55 3271.96 1968.21C3264.03 1747.7 3232.37 1314.54 3531.42 1277.33L3663.49 1272.72L3663.47 1272.72Z" fill="#14181F" fill-opacity="0.2"/>
<path d="M411.633 2202.98H276.99C318.444 2115.83 425.363 1996.85 427.627 1898.38C429.606 1813.09 350.718 1791.05 282.397 1822.82C148.161 1885.22 139.45 2075.13 121.947 2202.98L-53.4963 2202.98C48.8529 2048.2 20.1495 1863.97 179.396 1744.3C330.604 1630.69 640.263 1631.44 579.428 1891.36C553.091 2003.93 471.714 2106.77 411.614 2202.96L411.633 2202.98Z" fill="#14181F" fill-opacity="0.2"/>
<path d="M3663.47 1464.48V2170.34C3562.3 2165.99 3480.46 2129.25 3439.63 2033.09C3380.06 1892.67 3394.49 1674.47 3484.62 1548.82C3529.97 1485.6 3586.93 1466.56 3663.45 1464.48H3663.47Z" fill="#28323E"/>
<path d="M276.99 2202.98H121.947C139.471 2075.13 148.161 1885.22 282.397 1822.82C350.738 1791.05 429.606 1813.07 427.627 1898.38C425.343 1996.87 318.444 2115.83 276.99 2202.98Z" fill="#28323E"/>
<path d="M3035.13 -1256.94C3081.36 -1191.37 3121.2 -1168.85 3190.24 -1222.2C3199.77 -1229.56 3217.7 -1245.76 3222.82 -1256.94H3365.62C3339.67 -1233.48 3316.25 -1210.79 3294.57 -1183.15C3250.26 -1126.68 3200.13 -1014.32 3129.87 -992.876C3026.52 -961.336 3003.1 -1076.29 2969.28 -1144.17C2946.94 -1188.99 2921.67 -1227.99 2880.09 -1256.94H3035.13Z" fill="#14181F" fill-opacity="0.2"/>
<path d="M-1514.17 -1256.94C-1511.38 -1187.35 -1521.72 -1123.74 -1577.53 -1077.54C-1685.72 -987.979 -1761.06 -1087.78 -1810.06 -1179.34C-1823.38 -1204.24 -1834.21 -1230.75 -1844.66 -1256.94H-1514.17Z" fill="#14181F" fill-opacity="0.2"/>
<path d="M2157.91 2202.98H1786.63C1809.17 2161.16 1820.8 2110.69 1875.33 2101.98C1956.66 2088.96 2085.63 2167.12 2157.91 2202.98Z" fill="#14181F" fill-opacity="0.2"/>
<path d="M3222.82 -1256.94C3217.7 -1245.76 3199.77 -1229.56 3190.24 -1222.2C3121.2 -1168.85 3081.36 -1191.35 3035.13 -1256.94H3222.82Z" fill="#28323E"/>
<path d="M1362.3 399.58L1362.3 307.777C1362.3 236.661 1264.6 55.9735 1215.31 1.87149C1134.83 -86.4217 983.847 -114.064 869.462 -133.73C748.773 -154.478 704.707 -155.579 602.134 -85.2181C401.72 52.2606 279.337 194.37 248.961 442.909C229.927 598.565 208.017 799.02 336.071 913.752C391.458 963.387 587.364 1082.73 658.276 1081.06C702.749 1080 764.012 1047.19 811.3 1037.89C907.243 1019.02 924.135 1038.62 1011 976.463C1084.71 923.748 1225.37 815.83 1266.5 738.267C1311.89 652.708 1288.12 565.843 1284.61 475.203C1280.06 357.88 1304.77 307.817 1240.61 196.88C1166.15 68.1527 971.709 -50.9861 821.725 -49.6193C713.888 -48.6401 494.97 80.5561 428.097 165.055C361.225 249.554 379.646 284.52 371.017 377.261C354.248 557.642 290.129 650.464 405.902 819.4C485.81 936.009 568.391 935.315 682.369 991.743C706.849 1003.86 719.763 1020.1 683.001 1023.91C618.352 1030.63 417.673 915.058 370.67 866.872C327.156 822.236 283.703 732.27 277.481 670.375C269.117 587.181 307.877 500.031 317.262 417.368C324.891 350.108 315.691 299.616 346.924 234.865C413.328 97.2029 648.239 -96.3568 805.322 -90.0326C1018.83 -81.4236 1254.77 43.3253 1308.03 264.058C1323.78 329.32 1312.36 376.2 1312.99 438.278C1314.31 567.842 1361.44 631.552 1289.55 761.299C1250.2 832.334 1078.38 1020.28 1007.49 1054.54C947.106 1083.73 882.926 1080.18 818.787 1090.24C760.135 1099.44 702.728 1120.47 642.853 1120.16C498.275 1119.43 374.301 1043.07 265.077 956.124C146.306 861.588 165.747 750.548 170.868 613.682C174.52 516.188 171.398 389.888 213.566 301.412C261.466 200.899 353.044 71.4167 431.973 -6.51307C470.857 -44.9068 520.267 -96.3159 560.66 -130.793C683.063 -235.243 762.257 -194.85 903.857 -176.367C992.007 -164.862 1121.1 -162.25 1197.73 -119.348C1325.66 -47.7016 1436.15 239.741 1381.76 376.118C1378.33 384.727 1373.78 400.517 1362.3 399.497L1362.3 399.58Z" fill="#14181F" fill-opacity="0.2"/>
<path d="M794.327 17.2544C998.984 4.07569 1201.26 189.331 1234.61 386.482C1262.46 551.073 1245.16 731.698 1111.25 844.186C917.79 1006.7 791.083 1019.02 572.084 893.964C349.311 766.746 367.774 556.479 413.511 334.154C450.457 154.569 613.783 28.8818 794.306 17.2535L794.327 17.2544ZM802.467 82.5553C700.627 87.023 539.729 139.269 487.035 232.234C450.11 297.393 405.596 507.15 411.471 581.306C422.834 724.579 561.66 835.781 685.123 887.027C910.406 980.563 1203.32 826.907 1199.26 568.739C1195.87 354.698 1047.39 71.8247 802.467 82.5553Z" fill="#14181F" fill-opacity="0.2"/>
<path d="M802.467 82.5553C1047.39 71.8247 1195.87 354.698 1199.26 568.739C1203.34 826.907 910.426 980.563 685.123 887.027C561.68 835.781 422.834 724.579 411.471 581.306C405.596 507.171 450.089 297.393 487.035 232.234C539.729 139.269 700.627 87.023 802.467 82.5553ZM790.266 155.998C554.376 176.358 400.821 366.857 495.357 599.443C553.641 742.838 774.354 890.578 929.846 850.471C1115.23 802.632 1169.06 651.913 1131.12 477.795C1091.17 294.579 1000.68 137.862 790.287 156.019L790.266 155.998Z" fill="#28323E"/>
<path d="M790.266 155.998C1000.66 137.842 1091.17 294.558 1131.1 477.774C1169.04 651.892 1115.23 802.611 929.826 850.45C774.334 890.578 553.621 742.838 495.337 599.422C400.822 366.836 554.356 176.337 790.246 155.977L790.266 155.998ZM745.386 225.359C576.184 240.007 502.273 411.901 563.169 560.172C610.539 675.496 789.206 820.217 917.729 760.851C1125.85 664.704 1101.31 344.906 902.694 253.287C856.487 231.969 795.999 220.973 745.386 225.359Z" fill="#14181F" fill-opacity="0.2"/>
<path d="M745.386 225.359C795.999 220.973 856.487 231.969 902.694 253.287C1101.31 344.886 1125.85 664.683 917.729 760.851C789.206 820.217 610.539 675.516 563.169 560.172C502.273 411.901 576.164 240.007 745.386 225.359ZM790.389 294.476C575.959 304.819 574.409 667.56 805.505 656.768C1021.85 646.67 1030.5 282.888 790.389 294.476Z" fill="#28323E"/>
<path d="M790.389 294.476C1030.52 282.888 1021.85 646.67 805.505 656.768C574.409 667.56 575.959 304.819 790.389 294.476Z" fill="#14181F" fill-opacity="0.2"/>
</g>
<g filter="url(#filter0_f_63_35)">
<circle cx="819.5" cy="1518.5" r="283.5" fill="#14181F"/>
</g>
</g>
</g>
<defs>
<filter id="filter0_f_63_35" x="166" y="865" width="1307" height="1307" filterUnits="userSpaceOnUse" color-interpolation-filters="sRGB">
<feFlood flood-opacity="0" result="BackgroundImageFix"/>
<feBlend mode="normal" in="SourceGraphic" in2="BackgroundImageFix" result="shape"/>
<feGaussianBlur stdDeviation="185" result="effect1_foregroundBlur_63_35"/>
</filter>
<radialGradient id="paint0_radial_63_35" cx="0" cy="0" r="1" gradientUnits="userSpaceOnUse" gradientTransform="translate(1150 472.5) rotate(90) scale(805.5 891.825)">
<stop stop-color="#65809A"/>
<stop offset="1" stop-color="#2A3641" stop-opacity="0"/>
</radialGradient>
<clipPath id="clip0_63_35">
<rect width="1640" height="1090" fill="white"/>
</clipPath>
<clipPath id="clip1_63_35">
<rect width="2300" height="1122" fill="white" transform="translate(-330 -16)"/>
</clipPath>
</defs>
</svg>
