<svg fill="none" height="1194" viewBox="0 0 2126 1194" width="2126" xmlns="http://www.w3.org/2000/svg" xmlns:xlink="http://www.w3.org/1999/xlink"><filter id="a" color-interpolation-filters="sRGB" filterUnits="userSpaceOnUse" height="1307" width="1307" x="49.7148" y="-978"><feFlood flood-opacity="0" result="BackgroundImageFix"/><feBlend in="SourceGraphic" in2="BackgroundImageFix" mode="normal" result="shape"/><feGaussianBlur result="effect1_foregroundBlur_33_328" stdDeviation="185"/></filter><filter id="b" color-interpolation-filters="sRGB" filterUnits="userSpaceOnUse" height="1307" width="1307" x="609.715" y="865"><feFlood flood-opacity="0" result="BackgroundImageFix"/><feBlend in="SourceGraphic" in2="BackgroundImageFix" mode="normal" result="shape"/><feGaussianBlur result="effect1_foregroundBlur_33_328" stdDeviation="185"/></filter><filter id="c" color-interpolation-filters="sRGB" filterUnits="userSpaceOnUse" height="1307.14" width="1307.14" x="1756.21" y="-352.528"><feFlood flood-opacity="0" result="BackgroundImageFix"/><feBlend in="SourceGraphic" in2="BackgroundImageFix" mode="normal" result="shape"/><feGaussianBlur result="effect1_foregroundBlur_33_328" stdDeviation="185"/></filter><filter id="d" color-interpolation-filters="sRGB" filterUnits="userSpaceOnUse" height="1307.14" width="1307.14" x="-936.925" y="231.387"><feFlood flood-opacity="0" result="BackgroundImageFix"/><feBlend in="SourceGraphic" in2="BackgroundImageFix" mode="normal" result="shape"/><feGaussianBlur result="effect1_foregroundBlur_33_328" stdDeviation="185"/></filter><radialGradient id="e" cx="0" cy="0" gradientTransform="matrix(0 597 -1489.29 0 1063 597)" gradientUnits="userSpaceOnUse" r="1"><stop offset="0" stop-color="#51667b"/><stop offset="1" stop-color="#161c22" stop-opacity="0"/></radialGradient><clipPath id="f"><path d="m0 0h2126v1194h-2126z" transform="matrix(-1 -0 0 -1 2126 1194)"/></clipPath><g clip-path="url(#f)"><path d="m0 0h2126v1194h-2126z" fill="#0f1317" transform="matrix(-1 -0 0 -1 2126 1194)"/><path d="m0 0h2126v1194h-2126z" fill="url(#e)" transform="matrix(-1 -0 0 -1 2126 1194)"/><g fill="#313d49"><path d="m1374.12 312.141c-52.24-179.683 304.9-349.6677 10.44-517.024-294.45-167.356-244.78 439.403-560.318 285.9716-315.539-153.431-633.946 324.0334-512.863 660.9564 121.083 336.925 641.349-3.211 867.261 449.485 225.9 452.7 851.51-266.002 599.35-575.663-252.17-309.662-351.63-124.044-403.87-303.726z"/><path d="m170.834 1060.23c-147.564-115.066 42.407-461.989-294.283-425.231-336.69 36.757 58.8691 499.531-286.758 559.921-345.628 60.39-324.152 633.88-28.709 836.1s518.0138-378.15 966.225-143.46c448.211 234.68 534.501-714.25 148.76-817.61-385.741-103.361-357.671 105.34-505.235-9.72z"/><path d="m390.74-239.067c162.954-91.983 410.174 216.7669 505.688-108.176 95.515-324.943-483.766-137.709-406.633-479.99 77.133-342.277-460.5365-542.947-760.8-347.957-300.263 194.987 149.927 623.585-239.046 947.115-388.972 323.5307 453.8503 768.026 697.571 451.672 243.72-316.3536 40.266-370.681 203.22-462.664z"/><path d="m2091.89 597.202c45.76 181.441-317.24 338.508-28.98 516.318s260.38-430.342 570.22-265.694c309.83 164.654 645.16-301.088 536.23-642.137-108.92-341.049-641.05-19.792-850.57-480.303-209.53-460.51-860.51 235.2953-619.61 553.801 240.9 318.506 346.95 136.574 392.71 318.015z"/></g><g filter="url(#a)" opacity=".7"><circle cx="283.5" cy="283.5" fill="#e08552" r="283.5" transform="matrix(1 .00000009 .00000009 -1 419.715 -41)"/></g><g filter="url(#b)" opacity=".7"><circle cx="283.5" cy="283.5" fill="#e08552" r="283.5" transform="matrix(1 .00000009 .00000009 -1 979.715 1802)"/></g><g filter="url(#c)" opacity=".7"><circle cx="283.5" cy="283.5" fill="#e08552" r="283.5" transform="matrix(-.258819 .965926 .965926 .258819 2209.32 -46.1729)"/></g><g filter="url(#d)" opacity=".7"><circle cx="283.5" cy="283.5" fill="#e08552" r="283.5" transform="matrix(-.258819 .965926 .965926 .258819 -483.82 537.742)"/></g></g></svg>