<svg fill="none" height="1194" viewBox="0 0 2126 1194" width="2126" xmlns="http://www.w3.org/2000/svg" xmlns:xlink="http://www.w3.org/1999/xlink"><filter id="a" color-interpolation-filters="sRGB" filterUnits="userSpaceOnUse" height="1307" width="1307" x="409" y="873"><feFlood flood-opacity="0" result="BackgroundImageFix"/><feBlend in="SourceGraphic" in2="BackgroundImageFix" mode="normal" result="shape"/><feGaussianBlur result="effect1_foregroundBlur_45_830" stdDeviation="185"/></filter><filter id="b" color-interpolation-filters="sRGB" filterUnits="userSpaceOnUse" height="1307" width="1307" x="409" y="-970"><feFlood flood-opacity="0" result="BackgroundImageFix"/><feBlend in="SourceGraphic" in2="BackgroundImageFix" mode="normal" result="shape"/><feGaussianBlur result="effect1_foregroundBlur_45_830" stdDeviation="185"/></filter><radialGradient id="c" cx="0" cy="0" gradientTransform="matrix(0 597 -1489.29 0 1063 597)" gradientUnits="userSpaceOnUse" r="1"><stop offset="0" stop-color="#51667b"/><stop offset="1" stop-color="#161c22" stop-opacity="0"/></radialGradient><clipPath id="d"><path d="m0 0h2126v1194h-2126z"/></clipPath><clipPath id="e"><path d="m-3689-3971h9376v9376h-9376z"/></clipPath><mask id="f" height="9376" maskUnits="userSpaceOnUse" width="9376" x="-3689" y="-3971"><path d="m5687-3971h-9376v9376h9376z" fill="#fff"/></mask><g clip-path="url(#d)"><path d="m0 0h2126v1194h-2126z" fill="#0f1317"/><path d="m0 0h2126v1194h-2126z" fill="url(#c)"/><g clip-path="url(#e)"><g mask="url(#f)"><path d="m5687-3971h-9376v9376h9376z" fill="#14181f" opacity=".9"/><g fill="#313d49"><path d="m3433.01-554.384c-241.9 56.256-35.63 1070.74-328.16 1196.378-219.4 93.76-714.45-313.158-943.22-802.586-210.02-451.923-118.14-821.337-348.79-922.598-232.52-103.14-485.68 200.647-586.94 108.762-136.89-123.762 157.52-858.842 538.19-890.722 110.63-9.37 202.52 43.13 208.14 45.01 148.14 84.38 165.02 245.65 241.9 435.04 91.89 226.9 298.16 558.813 438.8 541.936 183.77-24.378 99.39-630.066 393.79-757.586 219.4-95.63 568.19 110.64 716.33 380.67 172.52 311.284 93.76 738.829-50.63 785.709-101.26 31.879-180.02-142.515-283.16-120.013z"/><path d="m-112.991-869.426c-48.755-9.376-93.76-28.128-125.638-65.632-86.259-97.512-24.378-258.782 82.509-333.782 106.8861-75.01 240.0255-90.01 363.789-131.27 236.275-78.76 275.654-320.66 523.18-395.66 95.636-28.13 208.148-20.63 281.281 46.88 95.63 88.13 93.76 240.02 71.26 367.53-22.51 127.52-60.01 264.41-11.25 386.296 50.63 123.763 191.27 234.4 148.14 361.913-52.51 157.517-251.28 112.513-356.291 198.772s-151.891 311.283-275.655 427.54524c-97.51 91.88476-228.774 153.76676-361.913 150.01576-135.0147-3.75-268.1541-76.8828-330.036-195.0204-61.881-118.1376-41.254-279.4046 60.0067-367.5396 54.3808-46.88 125.6384-71.257 187.5203-110.636 61.881-39.38 116.262-105.012 106.886-176.269-13.126-95.635-125.638-138.765-221.2733-148.141-46.88-5.626-95.6354-7.501-142.5157-16.877z"/><path d="m1034.63 2599.7c22.51 58.13 24.38 123.76-5.62 180.02-56.259 105.01-181.897 146.26-294.409 189.39s-232.525 114.39-247.527 232.53c-13.126 95.63 50.631 183.76 95.636 268.15 86.259 163.14 155.641 489.43-39.38 601.94-91.885 52.5-204.396 52.5-311.283 41.25-106.886-11.25-211.8976-30-316.9088-11.25-110.6372 18.75-226.8992 80.64-328.1602 31.88-63.757-30-103.136-99.39-121.888-168.77s-18.752-142.51-33.754-211.9c-61.881-315.03-603.816-521.3-406.918-875.71 91.885-166.9 311.283-198.78 487.552-268.16 343.162-136.89 418.1698-431.29 633.818-684.45 226.899-264.4 455.673-517.55 729.453-736.95 103.136-82.51 350.659-316.909 511.929-258.777 161.27 58.131 116.26 193.147 151.89 283.157 63.76 157.51 101.26 318.78 90.01 489.43-9.37 129.38-43.13 262.52-125.64 363.78s-213.77 168.77-341.28 148.14c-106.89-16.87-196.9-88.13-300.036-121.88-127.513-43.13-268.153-20.63-369.414 67.5-95.635 84.39-157.517 255.03-3.75 318.79 110.636 46.88 232.524-39.38 352.537-31.88 86.259 5.63 157.517 71.26 189.393 151.89z"/><path d="m37.0225 1851.5c290.6565-416.3 845.7155-648.82 855.0915-1003.235 9.376-337.536-474.426-768.8323-826.9635-667.571-292.5315 84.384-472.5505 528.806-348.7865 691.948 123.763 163.138 510.054-11.251 590.687 133.138 71.258 125.64-121.888 444.42-375.0395 500.68-270.0285 58.13-465.0495-213.77-660.0705-110.64-116.262 60.01-140.64 206.28-148.141 243.78-43.129 258.78 191.271 543.81 416.295 549.43 135.014 3.75 253.152-93.76 335.661-161.26 95.6347-78.76 148.1402-155.65 163.1418-176.27z"/><path d="m2540.41 1808.38c-110.63-159.4 459.43-611.32 341.29-823.218-76.88-138.764-416.29-112.511-639.44-16.876-41.26 18.752-470.68 211.894-489.43 639.444-11.25 266.28 136.89 570.06 354.41 633.82 221.28 65.63 397.54-151.89 607.57-37.51 88.13 46.88 159.39 140.64 140.64 193.15-24.38 65.63-178.15 9.37-279.41 95.63-112.51 95.64-127.51 331.91-26.25 481.93 120.01 178.14 393.79 223.15 560.68 140.64 373.17-183.77 382.54-1076.36 61.89-1278.89-223.15-140.64-549.44 91.89-630.07-26.25z"/><path d="m1929.1-627.514c-200.65-166.893-1100.745 118.137-1155.126 658.195-52.505 528.806 727.576 1078.239 1205.756 960.103 260.65-63.757 493.18-341.287 435.04-532.557-45-150.016-236.27-133.139-376.91-320.659-226.9-300.032 37.5-643.194-110.64-765.082z"/></g></g></g><g filter="url(#a)" opacity=".7"><circle cx="1062.5" cy="1526.5" fill="#e08552" r="283.5"/></g><g filter="url(#b)" opacity=".7"><circle cx="1062.5" cy="-316.5" fill="#e08552" r="283.5"/></g></g></svg>