<svg fill="none" height="1194" viewBox="0 0 2126 1194" width="2126" xmlns="http://www.w3.org/2000/svg" xmlns:xlink="http://www.w3.org/1999/xlink"><clipPath id="a"><path d="m0 0h2126v1194h-2126z"/></clipPath><g clip-path="url(#a)"><path d="m0 0h2126v1194h-2126z" fill="#28323e"/><path d="m514.414-660.915c26.099 101.26 73.038 181.064 174.21 219.758 98.361 37.624 160.707 41.769 250.265 110.018 58.685 44.713 168.061 176.48 224.181 194.684 54.95 17.839 84.61-22.144 131.14-36.13 137.55-41.33 208.05 102.1823 346.43 88.6643 36.89-3.6028 175-57.0013 203.35-80.7703 66.42-55.727 68.7-188.241 83.19-268.309 14.6-80.668 38.52-156.196 78.16-227.93h172.82c-52.49 46.178-97.22 103.179-122.34 169.113-65.49 171.911-2.4 353.107-180.74 472.4543-56.09 37.5368-101.78 44.1421-132.94 113.1084-41.91 92.8093-11.04 177.6223-18.02 271.9553-3.39 45.592-23.14 89.294-26.44 134.666-8.29 114.002 64.91 180.757-26.33 290.014-59.49 71.236-127.57 71.104-117.04 187.508 3.67 40.541 26.98 84.151 36.09 125.011 18.02 80.85 8.28 144.86 88.87 195.26 78.16 48.87 179 53.57 245.56-17.02 74.16-78.63 75.85-191.97 101.85-290.656 34.26-130.024 117.24-247.057 168.32-373.566 36.78-91.067 66.6-212.934 115.54-294.539 81.26-135.458 193.79-65.891 306.02-115.774 71.18-31.635 124.17-113.1815 176.64-168.9961 90.84-96.632 193.4-178.0469 313.49-235.7219v190.39363c-30.81 16.05164-58.34 37.93227-84.98 60.00327-146.48 121.3391-200.88 236.4251-401.94 295.1981-106.83 31.224-219.63 9.446-293.44 110.779-73.23 100.543-57.63 232.119-99.06 343.236-31.84 85.413-97.87 159.242-123.11 245.963-25.21 86.58-9.8 175.79-39.45 262.26-40.43 117.95-148.75 179.95-266.38 118.33-85.23-44.64-124.2-117.18-235.3-92.78-73.95 16.24-146.93 43.98-221.2 60.01-73.03 27.81-127.98 68.16-149.95 145.88-7.18 25.4-6.81 59.77-27.15 78.3-23.16 21.1-82.61 24-114.33 32.13-89.132 22.86-168.116 79.8-193.292 171.38h-84.945c43.146-69.05 101.553-142.88 120.475-223.7 43.674-186.6-178.647-187.15-287.186-105.58-114.324 85.92-93.718 218.18-167.195 329.3h-152.315c54.013-58.7 86.893-122.89 101.67-201.5 11.541-61.41 20.373-215.83 52.3-261.12 37.991-53.88 85.545-15.97 132.924-7.35 69.23 12.63 131.108-14.28 202.871-.76 36.995 6.97 84.901 23.38 119.392 38.78 48.784 21.8 100.527 63.34 156.751 59.9 56.05-3.42 81.11-65.11 121.85-94.9 63.92-46.75 184.66-46.13 261.5-57.78 29.94-4.54 85.33-18.63 86.7-57 1.61-44.68-87.07-8.01-108.77-3.15-50.78 11.4-101.57 17.02-153.3 22.45-31.82 3.34-62.56.65-94.52 10.93-45.83 14.75-69.98 64-112.61 77.78-87.39 28.27-213.255-64.96-308.232-71.25-33.407-2.21-67.882 5.61-99.839 3.18-78.75-6-98.8-78.85-194.626-42.53-75.249 28.53-100.001 77.31-113.431 153.12-21.587 121.79-18.761 307.57-135.838 382.62-36.394 23.33-75.425 30.86-113.9871 48.58h-618.0469l144.07-24.36c125.323-27.91 235.502-76.24 362.1134-103.62 87.8885-18.99 165.7736-12.87 221.4276-94.92 96.661-142.45 23.96-306.25 187.083-419.24 93.425-64.72 150.104 1.36 241.698 23.23 58.626 14 122.891 17.42 182.748 28.15 48.638 8.71 95.358 23.52 142.956 32.79 96.044 18.7 94.714-17.26 166.094-56.58 91.51-50.42 199.59 1.2 287.98-75.23 75.18-65 53.24-147.632 87.32-229.033 35.43-84.652 145.15-147.935 152.44-245.886 3.01-40.348-16.17-80.565-14.35-119.83 1.41-30.463 20.11-64.002 23.16-96.94 9.63-104.204-62.86-199.898-55.23-301.275 4.43-59.0955 34.74-123.4925-16.03-174.4593-39.98-40.1438-204.32-68.1027-260.94-64.4262-53.31 3.471-98.66 27.3727-153.81 16.3738-119.08-23.7553-166.34-152.4323-273.21-198.3753-66.33-28.515-150.367-32.718-209.696 13.943-12.625 9.929-40.569 35.091-29.233 52.182 18.995 28.632 132.118-6.839 165.159-7.235 120.153-1.479 157.323 107.558 246.65 157.807 126.04 70.89955 293.53 4.9209 415.03 65.34889 57.88 28.79331 32.13 109.21211 44.8 163.16711 17.13 72.935 70.72 138.562 82.6 219.099 13.05 88.43-23.92 127.71-29.06 204.57-1.93 28.808 2.9 59.213.09 87.962-9.81 100.293-97.85 161.468-134.02 249.694-28.72 70.05-29.28 135.673-102.32 178.883-82 48.51-165.07 17.31-246 49.84-28.4 11.41-55.24 34.21-85.17 40.79-53.276 11.71-130.942-17.71-187.137-25.21-79.321-10.57-157.06-5.83-233.965-32.59-52.885-18.39-105.331-56.66-164.104-52.87-87.654 5.67-181.064 105.95-207.221 185.26-46.105 139.8-8.129 263.9-190.0862 307.86-120.8998 29.22-249.4158 37.39-372.0728 58.51-109.491 18.85-214.354 48.76-326.012 57.71-84.374 6.75-177.256-2.55-257.353 6.26-15.29 1.69-30.8 5.06-45.783 8.41v-70.3c28.808-1.74 57.704-6.56 86.439-8.76 213.563-16.28 426.262-29.48 637.13-68.79 65.656-12.24 189.2508-35.53 241.08171-75.26 76.37709-58.55 78.26629-192.58 132.57229-274.58 85.091-128.51 208.51-69.73 268.543-258.698 25.41-79.98 73.96-243.47 66.535-322.937-4.189-44.889-39.66-63.694-51.875-13.884-9.153 37.332-8.67 84.447-16.315 124.283-13.064 68.102-62.786 221.852-110.355 270.436-42.121 43-91.404 43.99-139.72 71.17-145.3138 81.74-100.1173 280.85-258.774 356.35-109.593 52.15-360.429 62.48-487.685 71.78-122.394 8.94-244.729 14.42-367.577 11.74v-108.38c34.74 16.87 71.984 15.26 109.813 14.62 163.988-24.14 330.626-32.88 494.643-56.03 129.833-18.34 204.878-54.94 273.7267-168.58 49.7074-82.06 102.22671-250.51 184.213-296.16 66.1253-36.834 100.0003-23.287 136.9953-106.123 56.767-127.109 37.039-364.911 190.423-427.623 51.216-20.944 97.862-20.812 143.513-58.598 113.518-93.966 63.093-283.8763 235.282-327.1103 44.581-11.1892 113.943-15.993 157.426-.9665 48.489 16.75459 73.769 62.8883 123.739 78.3688 121.6 37.683 243.95-51.4355 334.64 84.227 34.84 52.124 112.89 216.053 114.31 275.338 1.8 74.986-45.18 114.105-57.44 180.069-9.23 49.663 3.46 93.029-9.26 143.058-17.76 69.875-116.84 187.831-167.7 242.371-70.8 75.909-117.65 49.959-208.72 63.689-58.7 8.87-98.696 38.83-162.009 34.47-62.552-4.31-228.926-42.36-282.617-71.81-157.295-86.308-75.894-294.218-70.109-433.454 1.728-41.638-8.07-93.19-2.797-131.679 5.272-38.489 54.145-67.56 78.911-93.908 74.019-78.75 83.817-174.972 181.796-239.998 22.335-14.822 87.947-39.7191 97.145-61.1311 9.197-21.4119-24.195-17.6919-37.01-16.4031-40.027 3.9982-94.157 27.9293-124.884 53.7935-71.426 60.1347-76.494 146.9687-134.783 213.7827-41.814 47.92-122.116 79.877-128.428 149.81-3.691 40.832 14.777 76.831 21.705 115.247 29.701 164.939-115.965 410.649 111.131 503.99 63.679 26.17 251.671 58.07 319.451 52.76 47.188-3.69 87.668-33.46 135.018-37.8 44.43-4.07 88.12 4.28 132.92-4.74 107.25-21.59 152.17-124.021 207.3-205.714 22.83-33.846 54.36-64.734 69.43-103.384 22.75-58.378.72-117.136 7.69-176.846 4.25-36.351 32.05-72.159 42.8-106.591 28.34-90.745-15.32-157.587-43.16-239.31-15.45-45.343-27.26-96.251-44.63-139.91-40.77-102.4609-168.48-82.206-255.59-78.3981-127.6 5.5799-130.26-37.66862-222.091-91.2717-88.109-51.4352-243.484-44.1274-323.933 19.7862-99.297 78.8962-24.209 235.8826-134.022 319.9926-47.35 36.263-93.923 30.17-148.492 38.972-162.186 26.172-159.814 247.731-229.117 353.781-30.697 46.983-61.9949 41.271-106.6056 60.354-182.8504 78.237-95.3872 433.759-336.2784 498.519-89.573 24.1-200.997 24.98-294.642 36.36-87.288 10.6-239.104 48.84-318.147 21.57-21.573-7.44-39.997-22.54-61.541-27.8v-357.353c81.166 59.944 174.4 110.673 276.832 120.063 69.347 6.36 137.713 4.57 206.504 19.04 78.134 16.43 124.971 49.81 197.599-10.31 111.453-92.252 144.787-239.339 203.1496-362.172 41.8573-88.108 87.141655-101.172 152.8713-160.545 65.8031-59.432 60.0621-102.798 84.1251-179.497 40.539-129.175 182.675-44.772 271.193-100.806 100.733-63.753 56.064-228.29664 63.533-328.9708 7.718-104.1012 74.517-179.2482 25.908-289.6032-43.615-98.99-158.334-119.025-204.204-211.732-9.608-19.42-17.883-43.996-20.929-65.481h228.472zm940.256 1189.226c8.24.747 11.51-10.603 13.97-16.784 39.04-97.92-40.28-304.263-132.12-355.698-55-30.8-147.67-32.675-210.97-40.935-101.66-13.269-158.512-42.2673-246.386 32.718-28.998 24.752-64.47 61.659-92.384 89.222-56.665 55.931-122.409 148.902-156.797 221.061-30.272 63.518-28.032 154.189-30.653 224.181-3.676 98.258-17.633 177.974 67.634 245.842 78.412 62.42 167.399 117.242 271.208 117.762 42.999.22 84.198-14.88 126.308-21.48 46.04-7.22 92.12-4.67 135.47-25.632 50.89-24.59 174.22-159.52 202.49-210.516 51.61-93.146 17.78-138.885 16.83-231.899-.46-44.567 7.74-78.237-3.56-125.074-38.24-158.466-207.62-248.024-360.9-254.205-112.772-4.54-281.417 134.418-329.088 233.247-22.423 46.485-15.817 82.733-21.295 131.02-6.737 59.344-34.549 121.896-28.559 181.635 4.467 44.435 35.648 109.037 66.901 141.067 33.729 34.593 177.813 117.561 224.225 112.742 26.377-2.738 17.121-14.396-.454-23.096-81.825-40.495-141.111-40.012-198.478-123.726-83.114-121.281-37.082-187.919-25.044-317.415 6.181-66.58-4.584-94.772 40.979-152.344 48.008-60.677 205.171-153.414 282.583-154.117 107.69-.981 247.27 84.55 300.72 176.964 46.06 79.643 28.34 115.569 31.59 199.81 2.52 65.071 19.59 127.432-13 188.856-29.54 55.683-130.52 133.143-183.42 171.002-62.36 44.611-74.51 30.551-143.37 44.099-33.95 6.678-77.929 30.242-109.856 30.992-50.909 1.2-191.551-84.478-231.314-120.111-91.93-82.367-76.201-226.275-62.537-338.022 21.808-178.428 109.667-280.449 253.546-379.146 73.638-50.513 105.271-49.722 191.921-34.828 82.13 14.119 190.52 33.949 248.28 97.35 35.39 38.826 105.53 168.557 105.53 219.611v65.906zm-407.75-274.474c-129.604 8.348-246.857 98.58-273.38 227.506-32.85 159.608-46.09 310.561 113.841 401.891 157.209 89.778 248.189 80.932 387.069-35.735 96.13-80.771 108.55-210.429 88.56-328.59-23.94-141.55-169.17-274.533-316.08-265.072z" fill="#28323e"/><path d="m2544.3-660.916c29.85 20.783 47.99 48.8 64.03 80.962 24.28 48.726 41.1 131.254 115.29 108.612 50.44-15.393 86.42-96.061 118.24-136.6 15.56-19.845 32.38-36.131 51.01-52.974h193.32c-74.55 35.501-142.31 68.645-194.48 135.048-42.08 53.544-60.27 109.066-120.96 148.521-130.4 84.784-143.61-67.78-198.89-145.636-47.24-66.55-149.85-30.17-199.05 17.165-60.38 58.114-122.23 147.613-157.09 223.697-57.63 125.792-62.56 263.5782-156.15 371.0919-52.75 60.6041-115.64 88.8551-140.62 172.7891-47.69 160.18-11.93 390.424-96.92 532.853-32.08 53.764-134.98 136.468-126.91 200.63 6.19 49.317 57.35 30.247 83.12 7.487 101.57-89.678 214.93-345.025 227.06-478.871 3.2-35.399-.12-76.084 3.01-111.219 10.37-116.477 134.35-189.369 189.78-284.741 80.41-138.3575 36.5-325.368 148.46-457.867 32.21-38.123 104.93-92.15 157.55-81.313 58.38 12.039 67.31 179.981 153.29 189.383 59.33 6.488 131.01-55.39 174.02-91.886 91.89-77.974 164.42-179.995 275.3-232.91v158.173c-103.61 53.676-201.78 124.634-291.38 199.254-45.31 37.742-121 123.1697-179.1 128.4421-68.82 6.2391-96.51-58.3331-176.82-27.402-42.56 16.4032-74.03 56.6494-94.3 96.09017-44.73 86.99513-79.91 196.22273-119.05 288.09473-53.09 124.576-104.19 250.865-158.19 374.914-38.96 89.499-91.55 170.709-122.69 263.958-32.16 96.31-62.8 337.13-214.07 297.34-90.07-23.7-85.89-99.74-117.23-169.83-6.56-14.68-17.5-28.23-23.27-44.1-32.41-89.209 35.06-109.567 84.32-163.258 42.69-46.514 90.61-116.433 90.94-181.635.27-51.128-19.4-96.178-25.79-144.377-9.09-68.673 24.97-110.794 33.94-175.352 13.59-97.994-18.4-192.459 72.71-261.2054 59.26-44.7132 117.37-75.923 164.88-136.8197 73.2-93.8489 58.48-223.4929 86.46-335.3409 28.67-114.691 94.52-210.869 188.97-281.153h237.26z" fill="#28323e"/><path d="m42.8239-660.916c35.4571 60.297 62.8591 125.118 96.1631 186.498 53.12 97.921 137.098 203.487 149.84 315.892 6.048 53.296 4.613 129.1161-9.578 180.7273-29.116 105.8437-99.108 53.9692-176.217 75.6887-104.29157 29.379-216.682 244.451-284.594 330.523-164.368 208.334-486.763 362.275-715.572 156.708l-73.521-59.739v-196.252c92.37 63.518 151.802 152.227 268.879 174.884 256.709 49.663 393.822-14.792 541.948-217.898 63.7232-87.376 169.52338-284.57969 278.15-307.6759 45.387-9.6515 75.118 3.8079 87.83-55.6974 21.061-98.5797-96.412-305.7717-177.0658-360.4877-73.4479-49.825-103.8376-33.553-109.403 53.515-7.5571 118.132-.9079 216.873-27.6652 335.5464-44.23 196.0756-188.651 415.6146-413.008 404.1616-202.461-10.34-297.087-87.479-437.89-215.321-3.632-3.295-5.975-7.337-11.76-7.264v-225.5428c14.675 8.0258 28.017 22.7447 39.587 35.1056 108.846 116.3157 153.325 205.7862 330.977 225.5572 234.506 26.114 399.05-120.6797 402.843-355.728 1.494-92.472-32.235-203.237-8.948-290.159 17.53-65.422 51.23-126.846 87.917-183.027h161.1025z" fill="#14181f" fill-opacity=".2"/><path d="m2307.04-660.916c-94.45 70.284-160.3 166.462-188.97 281.152-27.97 111.849-13.26 241.493-86.46 335.3419-47.49 60.9112-105.6 92.1211-164.88 136.8196-91.12 68.7465-59.12 163.1965-72.71 261.2055-8.95 64.572-43.03 106.679-33.94 175.352 6.39 48.199 26.06 93.249 25.8 144.377-.34 65.202-48.28 135.121-90.95 181.635-49.26 53.677-116.73 74.034-84.32 163.253 5.77 15.88 16.71 29.41 23.27 44.1 31.33 70.11 27.16 146.13 117.23 169.83 151.27 39.81 181.91-201.01 214.07-297.335 31.14-93.249 83.73-174.459 122.69-263.958 54-124.049 105.1-250.338 158.19-374.914 39.14-91.872 74.32-201.0996 119.05-288.09479 20.27-39.44071 51.74-79.68701 94.3-96.09011 80.29-30.9321 108 33.6411 176.82 27.402 58.1-5.2578 133.79-90.7001 179.1-128.4421 89.61-74.62 187.77-145.578 291.38-199.254v190.393c-120.1 57.675-222.66 139.0752-313.49 235.7219-52.48 55.8292-105.47 137.3611-176.64 168.9961-112.23 49.883-224.77-19.684-306.02 115.774-48.95 81.605-78.77 203.472-115.54 294.538-51.09 126.51-134.07 243.543-168.33 373.567-25.99 98.686-27.69 212.026-101.84 290.656-66.58 70.59-167.4 65.91-245.57 17.02-80.59-50.4-70.85-114.4-88.87-195.26-9.11-40.86-32.41-84.47-36.08-125.011-10.53-116.404 57.54-116.272 117.03-187.508 91.24-109.257 18.06-175.997 26.33-290.014 3.3-45.372 23.06-89.074 26.44-134.666 6.99-94.318-23.89-179.131 18.03-271.9553 31.15-68.9664 76.84-75.5716 132.94-113.1084 178.35-119.3473 115.24-300.5283 180.74-472.4543 25.12-65.92 69.84-122.935 122.33-169.113h128.89z" fill="#14181f" fill-opacity=".2"/><path d="m-970.655 1266.45c21.544 5.26 39.968 20.36 61.541 27.8 79.043 27.27 230.86-10.97 318.148-21.57 93.644-11.37 205.068-12.26 294.641-36.35 240.8915-64.78 153.413-420.306 336.2786-498.528 44.6107-19.083 75.8934-13.371 106.6054-60.355 69.304-106.049 66.931-327.608 229.117-353.78 54.555-8.802 101.143-2.709 148.492-38.972 109.813-84.11 34.725-241.0968 134.022-319.9929 80.434-63.9136 235.81-71.2221 323.933-19.7862 91.817 53.60302 94.497 96.8516 222.087 91.2716 87.11-3.8078 214.81-24.0774 255.6 78.3985 17.37 43.658 29.17 94.567 44.62 139.91 27.83 81.722 71.5 148.55 43.16 239.309-10.75 34.432-38.55 70.241-42.79 106.591-6.97 59.711 15.05 118.454-7.69 176.847-15.07 38.664-46.59 69.537-69.44 103.383-55.12 81.694-100.04 184.124-207.29 205.714-44.8 9.02-88.49.66-132.93 4.74-47.33 4.35-87.811 34.11-135.014 37.8-67.78 5.31-255.757-26.59-319.451-52.76-227.095-93.326-81.444-339.05-111.131-503.99-6.913-38.43-25.381-74.414-21.705-115.246 6.313-69.933 86.615-101.89 128.428-149.811 58.29-66.813 63.357-153.647 134.784-213.7821 30.726-25.8642 84.857-49.7952 124.883-53.7934 12.815-1.2742 46.281-5.126 37.01 16.4031s-74.81 46.2944-97.145 61.1314c-97.979 65.026-107.777 161.248-181.796 239.998-24.766 26.347-73.682 55.77-78.911 93.908-5.228 38.137 4.525 90.041 2.797 131.679-5.785 139.236-87.185 347.146 70.109 433.453 53.691 29.45 220.051 67.5 282.617 71.81 63.313 4.36 103.315-25.6 162.015-34.46 91.06-13.74 137.91 12.21 208.71-63.698 50.88-54.541 149.96-172.482 167.71-242.371 12.71-50.03.03-93.395 9.25-143.059 12.26-65.964 59.25-105.068 57.44-180.068-1.42-59.286-79.46-223.214-114.31-275.338-90.7-135.6482-213.03-46.544-334.63-84.2273-49.97-15.4805-75.25-61.62891-123.745-78.3689-43.468-15.0118-112.845-10.2226-157.426.9667-172.174 43.2486-121.764 233.1445-235.282 327.1105-45.636 37.786-92.282 37.654-143.513 58.597-153.384 62.713-133.656 300.514-190.423 427.624-36.994 82.836-70.87 69.288-136.9949 106.122-81.97174 45.665-134.4911 214.1-184.2131 296.16-68.849 113.64-143.893 150.24-273.727 168.58-164.017 23.17-330.64 31.89-494.642 56.03-37.83.64-75.074 2.27-109.813-14.62v-146.45z" fill="#14181f" fill-opacity=".2"/><path d="m3106.69 428.721c-115.95 44.801-212.83 126.099-326.08 176.26-159.65 70.724-294.2 56.049-393.91 229.996-115.86 202.113-8.5 451.603-97.76 625.733-48.9 95.4-243.28 178.18-346.53 168.91-72.38-6.5-130.3-66.99-202.27-61.57s-136.38 99.77-182.88 148.1c-35.71 37.11-73.16 72.42-111.38 106.84h-445.23c5.1-9.74 14.94-14.08 24.79-17.68 31.2-11.39 73.57-14.02 107.65-24.17 68.34-20.34 223.54-96.42 225.15-179.33.52-27.29-15.23-49.39.23-78.59 68.81-129.95 266-106.5 377.46-53.28 40.59 19.37 74.64 51.21 117.13 67.41 138.29 52.76 278.73-53.83 310.07-187.8 17.01-72.66 5.16-149.12 25.28-223.7 17.4-64.44 64.53-115.76 86.44-180.108 32.53-95.505 22.5-193.967 64.81-289.618 71.06-160.619 183.65-140.056 326.96-182.705 167.14-49.736 299.08-149.414 440.06-246.823v202.11z" fill="#28323e"/><path d="m3106.69 226.61c-140.96 97.408-272.9 197.086-440.05 246.823-143.31 42.648-255.91 22.086-326.97 182.705-42.31 95.65-32.28 194.113-64.81 289.617-21.92 64.355-69.05 115.675-86.43 180.115-20.14 74.57-8.29 151.02-25.28 223.69-31.34 133.97-171.78 240.56-310.08 187.81-42.49-16.2-76.54-48.04-117.12-67.42-111.47-53.22-308.67-76.67-377.46 53.28-15.47 29.21.29 51.31-.24 78.59-1.61 82.91-156.81 158.99-225.15 179.34-34.08 10.15-76.45 12.75-107.64 24.16-9.86 3.61-19.7 7.94-24.8 17.68h-143.524c25.161-91.59 104.16-148.52 193.294-171.38 31.71-8.15 91.17-11.05 114.32-32.14 20.35-18.54 19.97-52.9 27.16-78.29 21.98-77.73 76.93-118.07 149.95-145.89 74.27-16.02 147.25-43.76 221.2-60 111.1-24.4 150.09 48.14 235.29 92.78 117.62 61.61 225.96-.38 266.39-118.34 29.65-86.48 14.24-175.67 39.44-262.26 25.25-86.713 91.28-160.542 123.12-245.955 41.43-111.117 25.83-242.693 99.06-343.235 73.81-101.348 186.6-79.556 293.44-110.78 201.05-58.773 255.46-173.859 401.93-295.1979 26.64-22.071 54.19-43.95159 84.99-60.00322v234.33012z" fill="#14181f" fill-opacity=".2"/><path d="m180.493-660.915c26.568 77.988 53.325 179.043 120.344 232.617 50.058 40.026 135.325 52.211 145.445 126.963 11.409 84.241-29.642 169.172-37.287 254.1017-5.566 61.7899 4.057 220.9443-80.83 232.5873-87.873 12.054-163.577-28.368-240.3786 45.211-62.4784 59.857-34.9006 107.28-61.131 174.664-30.19928 77.608-109.4176 104.79-154.9364 167.268-62.698 86.058-66.799 244.436-177.505 285.297-50.718 18.718-120.285-3.075-174.283-7.264-38.928-3.017-78.281-1.582-117.253-2.841-106.943-3.442-188.182 11.629-280.538-50.454-31.342-21.061-59.241-50.118-92.809-66.828v-205.039l73.536 59.739c228.808 205.567 551.203 51.626 715.571-156.708 67.912-86.073 180.30279-301.144 284.594-330.5233 77.11-21.7195 147.101 30.1553 176.217-75.6886 14.192-51.6113 15.612-127.4321 9.578-180.7271-12.742-112.406-96.72-217.971-149.84-315.892-33.304-61.395-60.7057-126.216-96.1628-186.498h137.6688z" fill="#28323e"/><path d="m-970.655 1822.99v-114.24c14.983-3.35 30.492-6.72 45.782-8.41 80.112-8.81 172.98.5 257.354-6.26 111.658-8.94 216.521-38.86 326.012-57.71 122.657-21.12 251.1726-29.29 372.0725-58.51 181.9725-43.96 143.9815-168.06 190.0855-307.86 26.157-79.31 119.567-179.59 207.222-185.26 58.758-3.79 111.204 34.46 164.104 52.87 76.904 26.76 154.643 22 233.964 32.59 56.181 7.5 133.847 36.92 187.139 25.21 29.92-6.58 56.77-29.38 85.17-40.79 80.94-32.53 164-1.33 246-49.84 73.04-43.21 73.6-108.833 102.32-178.883 36.17-88.211 124.2-149.386 134.02-249.694 2.81-28.749-2.01-59.154-.09-87.962 5.14-76.86 42.11-116.14 29.06-204.57-11.9-80.537-65.47-146.149-82.6-219.099-12.69-53.955 13.07-134.3738-44.81-163.16715-121.5-60.44255-288.97 5.55066-415.02-65.34895-89.328-50.2489-126.513-159.2859-246.652-157.8069-33.04.41-146.163 35.867-165.159 7.235-11.335-17.091 16.609-42.253 29.233-52.182 59.33-46.661 143.366-42.458 209.697-13.943 106.871 45.943 154.131 174.62 273.211 198.3753 55.14 10.9988 100.5-12.9175 153.81-16.3739 56.62-3.6764 220.96 24.2971 260.94 64.4262 50.78 50.9669 20.48 115.3785 16.03 174.4594-7.63 101.377 64.86 197.071 55.22 301.275-3.04 32.924-21.74 66.477-23.15 96.94-1.82 39.265 17.37 79.496 14.35 119.83-7.31 97.951-117.02 161.234-152.44 245.886-34.08 81.401-12.13 164.043-87.32 229.033-88.4 76.42-196.47 24.81-287.98 75.23-71.37 39.32-70.05 75.28-166.095 56.58-47.599-9.27-94.318-24.08-142.956-32.79-59.857-10.73-124.137-14.15-182.749-28.15-91.594-21.87-148.272-87.94-241.697-23.23-163.123 112.99-90.422 276.79-187.083 419.24-55.669 82.05-133.5541 75.93-221.428 94.92-126.626 27.38-236.791 75.71-362.114 103.62l-144.069 24.36z" fill="#14181f" fill-opacity=".2"/><path d="m285.941-660.916c3.032 21.486 11.321 46.076 20.929 65.481 45.87 92.707 160.589 112.742 204.204 211.732 48.609 110.355-18.19 185.502-25.908 289.6032-7.469 100.67421 37.185 265.2178-63.533 328.9708-88.533 56.034-230.654-28.369-271.193 100.806-24.078 76.699-18.322 120.065-84.1249 179.497-65.744331 59.373-111.014 72.437-152.8713 160.545-58.3628 122.834-91.6818 269.92-203.1498 362.171-72.628 60.12-119.464 26.76-197.599 10.31-68.791-14.47-137.157-12.68-206.504-19.04-102.431-9.39-195.651-60.118-276.832-120.062v-178.677c33.568 16.711 61.468 45.768 92.81 66.828 92.355 62.098 173.595 47.012 280.537 50.454 38.987 1.26 78.325-.19 117.253 2.842 53.999 4.188 123.551 25.981 174.283 7.264 110.707-40.862 114.808-199.254 177.506-285.297 45.5184-62.479 124.75128-89.661 154.936-167.268 26.2157-67.385-1.3475-114.808 61.1309-174.664 76.8021-73.58 152.4901-33.173 240.3791-45.211 84.886-11.644 75.264-170.7834 80.829-232.588 7.66-84.93 48.712-169.86 37.288-254.102-10.12-74.737-95.387-86.937-145.446-126.963-67.018-53.574-93.776-154.629-120.343-232.617h105.449z" fill="#14181f" fill-opacity=".2"/><path d="m3106.69 428.721v193.322c-60.76 27.139-121.63 54.379-183.8 78.354-233.35 89.954-451.04 105.903-489.52 403.873-22.61 175.03 48.64 378.13-64.93 526.74-84.03 109.93-303.35 122.57-426.85 87.3-89.06-25.42-151.58-84.15-229.24 3.55-28.1 31.74-49.85 70.03-79.01 101.13h-187.46c38.24-34.42 75.67-69.73 111.38-106.84 46.5-48.33 111.2-142.7 182.88-148.1 71.67-5.4 129.89 55.07 202.27 61.57 103.25 9.27 297.63-73.51 346.53-168.91 89.26-174.15-18.1-423.64 97.76-625.733 99.72-173.947 234.26-159.257 393.91-229.996 113.24-50.161 210.12-131.459 326.08-176.26z" fill="#14181f" fill-opacity=".2"/><path d="m3106.69 812.437c-157.98 25.586-354.68 80.726-462.87 206.433-95.77 111.26-48.2 241.25-52.54 375.12-2.53 78.41-14.41 163.49-36.74 238.59-20.11 67.65-50.28 131.82-89.33 190.41h-439.37c-51.88-25.75-144.47-81.86-202.87-72.51-39.14 6.25-47.49 42.48-63.68 72.51h-125.95c29.16-31.1 50.91-69.39 79.01-101.13 77.66-87.7 140.18-28.97 229.24-3.55 123.5 35.27 342.82 22.63 426.85-87.3 113.57-148.61 42.32-351.71 64.93-526.74 38.49-297.97 256.19-313.919 489.52-403.873 62.17-23.975 123.04-51.215 183.8-78.354z" fill="#28323e"/><path d="m3086.19-660.916h20.5v114.236c-110.88 52.915-183.4 154.937-275.29 232.91-43 36.497-114.68 98.375-174.02 91.887-85.99-9.403-94.9-177.33-153.3-189.383-52.6-10.852-125.32 43.19-157.54 81.313-111.95 132.499-68.04 319.5238-148.46 457.867-55.44 95.372-179.41 168.264-189.78 284.74-3.14 35.15.19 75.821-3.02 111.219-12.12 133.832-125.48 389.179-227.05 478.867-25.78 22.76-76.93 41.83-83.13-7.482-8.07-64.148 94.83-146.852 126.92-200.631 84.99-142.443 49.23-372.687 96.91-532.852 24.99-83.934 87.88-112.186 140.63-172.7895 93.58-107.5137 98.52-245.2995 156.15-371.0915 34.86-76.099 96.71-165.584 157.09-223.698 49.19-47.334 151.8-83.729 199.05-17.164 55.27 77.856 68.48 230.405 198.89 145.636 60.69-39.455 78.88-94.977 120.96-148.521 52.18-66.389 119.93-99.547 194.47-135.048z" fill="#14181f" fill-opacity=".2"/><path d="m-970.655 329.13v-196.252c5.785-.058 8.129 3.969 11.761 7.265 140.803 127.841 235.429 204.98 437.89 215.32 224.357 11.453 368.792-208.086 413.007-404.1616 26.7726-118.6734 20.1088-217.4004 27.6659-335.5464 5.5654-87.054 35.9697-103.325 109.403-53.515 80.6681 54.716 198.1411 261.908 177.0661 360.4878-12.713 59.5053-42.443 46.0459-87.83 55.6974-108.62692 23.08154-214.4271 220.2848-278.15 307.6758-148.112 203.106-285.239 267.561-541.948 217.898-117.077-22.657-176.509-111.366-268.879-174.884z" fill="#28323e"/><path d="m1123.67-660.915c25.4 60.428 27.9 131.181 58.04 189.47 57.55 111.278 287.57 273.698 377 115.218 49.79-88.24 54.08-207.895 80.49-304.688h240.19c-21.52 54.95-34.7 112.61-40.99 171.368-16 149.313 12.11 271.004-172.25 308.13-76.39 15.393-124.49 9.989-195.9-19.112-57.22-23.316-108.72-64.529-174.58-40.862-45.17 16.228-68.85 67.531-122.26 24.268-42.93-34.769-85.62-88.577-127.3-127.534-64.163-59.945-126.436-101.304-195.783-152.784-60.355-44.801-99.02-88.708-119.172-163.489h392.505z" fill="#28323e"/><path d="m-118.278-660.916c-36.702 56.181-70.387 117.605-87.918 183.027-23.287 86.922 10.428 197.687 8.948 290.16-3.793 235.0476-168.322 381.841-402.843 355.728-177.637-19.772-222.116-109.2421-330.977-225.5579-11.57-12.3609-24.912-27.0798-39.587-35.1056v-246.0465c6.62-1.494 6.166 3.72 8.714 7.249 53.237 73.609 134.843 174.796 202.139 234.4478 117.693 104.30627 304.703 151.5385 398.904-8.3338 99.283-168.498 35.252-379.351-6.356-555.568z" fill="#28323e"/><g fill="#14181f" fill-opacity=".2"><path d="m-367.254-660.916c41.623 176.217 105.653 387.085 6.356 555.568-94.201 159.8723-281.211 112.64007-398.904 8.3338-67.311-59.6518-148.902-160.8388-202.139-234.4478-2.548-3.529-2.094-8.743-8.714-7.249v-310.488c8.743.044 11.087 10.164 14.206 16.535 46.427 94.874 66.33 179.746 140.95 263.27 133.744 149.708 369.422 185.56 380.992-73.184 3.471-77.578-14.675-149.899-49.912-218.338z"/><path d="m731.169-660.916c20.152 74.781 58.817 118.689 119.172 163.49 69.347 51.479 131.62 92.839 195.779 152.783 41.7 38.943 84.38 92.766 127.3 127.534 53.42 43.264 77.08-8.04 122.27-24.267 65.86-23.653 117.35 17.545 174.57 40.861 71.41 29.101 119.51 34.505 195.9 19.113 184.36-37.127 156.26-158.818 172.25-308.13 6.3-58.759 19.48-116.419 40.99-171.369h125.95c-39.64 71.734-63.56 147.262-78.16 227.93-14.5 80.068-16.77 212.582-83.19 268.309-28.34 23.784-166.44 77.1674-203.35 80.7702-138.37 13.518-208.88-130.0092-346.43-88.6642-46.54 13.986-76.19 53.969-131.14 36.13-56.1-18.219-165.492-149.971-224.177-194.684-89.558-68.234-151.905-72.394-250.265-110.018-101.172-38.694-148.097-118.498-174.21-219.758h216.756z"/><path d="m3106.69 812.437v202.113c-97.98-.88-203.32 19.08-286.82 71.99-88.71 56.2-114.72 112.4-120.3 216.56-5.83 109.05 2.67 218.63-12.12 327.65-8.75 64.48-25.79 130.7-46.49 192.24h-175.75c39.06-58.59 69.22-122.76 89.33-190.41 22.33-75.12 34.21-160.18 36.74-238.59 4.32-133.87-43.23-263.86 52.54-375.12 108.19-125.707 304.89-180.847 462.87-206.433z"/><path d="m-970.655 1638.45v-117.16c122.862 2.68 245.183-2.8 367.576-11.75 127.257-9.3 378.092-19.63 487.686-71.78 158.6562-75.5 113.44506-274.6 258.774-356.34 48.316-27.18 97.598-28.18 139.719-71.18 47.584-48.565 97.291-202.315 110.355-270.432 7.645-39.836 7.162-86.966 16.316-124.283 12.214-49.795 47.671-31.004 51.874 13.884 7.426 79.468-41.139 242.957-66.535 322.937-60.032 188.974-183.451 130.184-268.542 258.704-54.2918 82.01-56.1811 216.02-132.57278 274.57-51.83092 39.74-175.42522 63.02-241.08222 75.27-210.868 39.31-423.567 52.5-637.129 68.79-28.75 2.19-57.631 7.01-86.439 8.76z"/><path d="m1639.2-660.915c-26.41 96.793-30.7 216.433-80.49 304.688-89.43 158.48-319.45-3.925-377-115.218-30.14-58.289-32.64-129.042-58.04-189.47z"/></g><path d="m3106.69 1014.55v140.59l-94.81 3.31c-214.69 26.72-191.96 337.69-186.27 495.99 2.03 56.24 1.76 112.98 11.6 168.55h-196.25c20.7-61.54 37.74-127.76 46.49-192.24 14.79-109.02 6.28-218.62 12.12-327.65 5.58-104.18 31.59-160.36 120.3-216.56 83.51-52.9 188.84-72.86 286.82-71.99z" fill="#28323e"/><path d="m86.7608 1822.99c38.5762-17.73 77.5922-25.25 113.9872-48.58 117.077-75.05 114.251-260.83 135.838-382.62 13.43-75.81 38.182-124.59 113.431-153.12 95.826-36.32 115.891 36.51 194.626 42.53 31.957 2.45 66.432-5.39 99.839-3.18 94.977 6.28 220.842 99.52 308.228 71.25 42.64-13.78 66.79-63.05 112.61-77.78 31.96-10.28 62.7-7.59 94.53-10.93 51.73-5.43 102.52-11.05 153.29-22.45 21.71-4.86 110.39-41.53 108.78 3.15-1.39 38.37-56.78 52.46-86.71 57-76.86 11.64-197.58 11.03-261.49 57.78-40.75 29.8-65.81 91.48-121.85 94.9-56.23 3.44-107.973-38.11-156.757-59.9-34.491-15.41-82.397-31.81-119.392-38.78-71.763-13.52-133.641 13.39-202.871.76-47.379-8.64-94.933-46.53-132.924 7.35-31.928 45.29-40.759 199.71-52.3 261.12-14.777 78.6-47.657 142.81-101.67 201.5z" fill="#14181f" fill-opacity=".2"/><path d="m-847.632-660.916c7.484 18.805 15.261 37.845 24.839 55.712 35.179 65.715 89.266 137.377 166.932 73.082 40.07-33.172 47.495-78.837 45.489-128.794h125.953c35.237 68.439 53.383 140.774 49.912 218.338-11.57 258.759-247.233 222.892-380.992 73.184-74.605-83.509-94.523-168.381-140.95-263.27-3.119-6.371-5.463-16.491-14.206-16.535v-11.717z" fill="#28323e"/><path d="m3106.69 1155.14v137.67c-54.93 1.5-95.82 15.16-128.38 60.55-64.71 90.2-75.07 246.85-32.29 347.66 29.29 69.05 88.05 95.41 160.69 98.53v23.44h-269.48c-9.84-55.57-9.57-112.31-11.6-168.55-5.7-158.3-28.43-469.27 186.26-495.99l94.82-3.31z" fill="#14181f" fill-opacity=".2"/><path d="m772.177 1822.99h-96.661c29.76-62.57 106.518-147.98 108.143-218.68 1.421-61.23-55.214-77.05-104.262-54.25-96.368 44.81-102.622 181.14-115.188 272.93h-125.952c73.477-111.12 52.871-243.38 167.195-329.3 108.553-81.56 330.86-81.02 287.186 105.58-18.907 80.82-77.329 154.65-120.475 223.7z" fill="#14181f" fill-opacity=".2"/><path d="m3106.69 1292.81v506.74c-72.62-3.12-131.38-29.49-160.69-98.53-42.76-100.81-32.41-257.46 32.29-347.66 32.56-45.39 73.45-59.05 128.39-60.55z" fill="#28323e"/><path d="m675.516 1822.99h-111.307c12.581-91.79 18.82-228.12 115.188-272.93 49.063-22.8 105.683-7 104.262 54.25-1.64 70.71-78.383 156.11-108.143 218.68z" fill="#28323e"/><path d="m2655.61-660.916c33.18 47.071 61.79 63.24 111.35 24.942 6.84-5.287 19.71-16.916 23.39-24.942h102.52c-18.63 16.843-35.45 33.129-51.01 52.974-31.82 40.539-67.8 121.207-118.24 136.6-74.19 22.642-91.01-59.886-115.29-108.612-16.04-32.177-34.18-60.179-64.03-80.962z" fill="#14181f" fill-opacity=".2"/><path d="m-610.372-660.916c2.006 49.957-5.419 95.622-45.489 128.794-77.666 64.295-131.753-7.352-166.932-73.082-9.563-17.882-17.34-36.907-24.839-55.712z" fill="#14181f" fill-opacity=".2"/><path d="m2025.84 1822.99h-266.55c16.19-30.03 24.54-66.26 63.68-72.51 58.4-9.35 150.99 46.76 202.87 72.51z" fill="#14181f" fill-opacity=".2"/><path d="m2790.35-660.916c-3.68 8.026-16.55 19.655-23.39 24.942-49.56 38.298-78.17 22.144-111.35-24.942z" fill="#28323e"/><path d="m1454.67 528.311-.01-65.906c0-51.054-70.13-180.771-105.52-219.611-57.77-63.387-166.17-83.231-248.28-97.35-86.65-14.894-118.283-15.685-191.921 34.828-143.879 98.697-231.738 200.718-253.546 379.146-13.664 111.746-29.394 255.654 62.537 338.022 39.763 35.632 180.405 121.31 231.314 120.11 31.927-.76 75.906-24.313 109.856-30.991 68.88-13.548 81.01.527 143.37-44.099 52.91-37.844 153.89-115.319 183.42-171.002 32.59-61.424 15.52-123.785 13-188.856-3.26-84.227 14.47-120.167-31.59-199.81-53.45-92.414-193.04-177.945-300.72-176.964-77.412.703-234.575 93.454-282.583 154.116-48.009 60.663-34.784 85.765-40.979 152.344-12.039 129.497-58.07 196.135 25.044 317.415 57.367 83.715 116.653 83.217 198.478 123.727 17.575 8.699 26.846 20.357.454 23.096-46.412 4.819-190.481-78.149-224.225-112.742-31.239-32.045-62.434-96.632-66.901-141.067-6.005-59.725 21.822-122.291 28.559-181.635 5.477-48.287-1.128-84.535 21.295-131.02 47.671-98.829 216.316-237.787 329.088-233.247 153.28 6.181 322.66 95.739 360.9 254.205 11.3 46.851 3.1 80.507 3.56 125.073.95 93.015 34.78 138.753-16.83 231.9-28.25 50.996-151.6 185.926-202.49 210.516-43.35 20.961-89.43 18.411-135.47 25.631-42.11 6.6-83.324 21.7-126.309 21.48-103.793-.52-192.795-55.342-271.208-117.761-85.267-67.868-71.309-147.585-67.633-245.842 2.621-69.992.381-160.663 30.653-224.181 34.388-72.159 100.132-165.115 156.796-221.062 27.915-27.563 63.387-64.47 92.385-89.221 87.874-74.9855 144.726-45.987 246.386-32.718 63.28 8.26 155.96 10.135 210.97 40.934 91.84 51.436 171.16 257.793 132.12 355.699-2.46 6.181-5.73 17.516-13.98 16.784z" fill="#14181f" fill-opacity=".2"/><path d="m1046.92 253.837c146.92-9.461 292.13 123.536 316.08 265.071 19.99 118.161 7.57 247.834-88.56 328.59-138.89 116.667-229.85 125.513-387.074 35.735-159.931-91.33-146.676-242.283-113.841-401.891 26.524-128.926 143.777-219.157 273.375-227.505zm5.84 46.88c-73.112 3.208-188.622 40.715-226.452 107.455-26.509 46.779-58.465 197.365-54.247 250.602 8.157 102.857 107.821 182.69 196.456 219.48 161.733 67.15 372.013-43.161 369.103-228.502-2.43-153.662-109.03-356.738-284.86-349.035z" fill="#14181f" fill-opacity=".2"/><path d="m1052.76 300.717c175.83-7.703 282.43 195.373 284.86 349.035 2.93 185.341-207.36 295.652-369.103 228.502-88.62-36.79-188.299-116.623-196.456-219.48-4.218-53.222 27.724-203.823 54.247-250.602 37.83-66.74 153.34-104.247 226.452-107.455zm-8.76 52.725c-169.347 14.617-279.585 151.378-211.717 318.353 41.843 102.944 200.297 209.008 311.927 180.215 133.08-34.344 171.73-142.546 144.49-267.547-28.68-131.533-93.64-244.041-244.69-231.006z" fill="#28323e"/><path d="m1044 353.442c151.04-13.034 216.02 99.473 244.69 231.006 27.24 125-11.4 233.203-144.5 267.547-111.63 28.808-270.079-77.256-311.921-180.215-67.854-166.975 42.369-303.736 211.721-318.353zm-32.22 49.795c-121.471 10.516-174.532 133.92-130.815 240.365 34.008 82.791 162.275 186.688 254.545 144.069 149.41-69.025 131.79-298.61-10.8-364.384-33.17-15.305-76.59-23.199-112.93-20.05z" fill="#14181f" fill-opacity=".2"/><path d="m1011.78 403.237c36.34-3.149 79.76 4.745 112.93 20.05 142.59 65.759 160.21 295.344 10.8 364.384-92.27 42.619-220.537-61.263-254.545-144.069-43.717-106.445 9.33-229.849 130.815-240.365zm32.31 49.62c-153.942 7.425-155.055 267.839 10.85 260.092 155.32-7.25 161.53-268.411-10.85-260.092z" fill="#28323e"/><path d="m1044.09 452.857c172.39-8.319 166.17 252.842 10.85 260.092-165.905 7.747-164.792-252.667-10.85-260.092z" fill="#14181f" fill-opacity=".2"/></g></svg>