<svg fill="none" height="1194" viewBox="0 0 2126 1194" width="2126" xmlns="http://www.w3.org/2000/svg" xmlns:xlink="http://www.w3.org/1999/xlink"><filter id="a" color-interpolation-filters="sRGB" filterUnits="userSpaceOnUse" height="1307" width="1307" x="49.7148" y="-978"><feFlood flood-opacity="0" result="BackgroundImageFix"/><feBlend in="SourceGraphic" in2="BackgroundImageFix" mode="normal" result="shape"/><feGaussianBlur result="effect1_foregroundBlur_33_335" stdDeviation="185"/></filter><filter id="b" color-interpolation-filters="sRGB" filterUnits="userSpaceOnUse" height="1307" width="1307" x="609.715" y="865"><feFlood flood-opacity="0" result="BackgroundImageFix"/><feBlend in="SourceGraphic" in2="BackgroundImageFix" mode="normal" result="shape"/><feGaussianBlur result="effect1_foregroundBlur_33_335" stdDeviation="185"/></filter><filter id="c" color-interpolation-filters="sRGB" filterUnits="userSpaceOnUse" height="1307.14" width="1307.14" x="1756.21" y="-352.528"><feFlood flood-opacity="0" result="BackgroundImageFix"/><feBlend in="SourceGraphic" in2="BackgroundImageFix" mode="normal" result="shape"/><feGaussianBlur result="effect1_foregroundBlur_33_335" stdDeviation="185"/></filter><filter id="d" color-interpolation-filters="sRGB" filterUnits="userSpaceOnUse" height="1307.14" width="1307.14" x="-936.926" y="231.387"><feFlood flood-opacity="0" result="BackgroundImageFix"/><feBlend in="SourceGraphic" in2="BackgroundImageFix" mode="normal" result="shape"/><feGaussianBlur result="effect1_foregroundBlur_33_335" stdDeviation="185"/></filter><radialGradient id="e" cx="0" cy="0" gradientTransform="matrix(0 597 -1489.29 0 1063 597)" gradientUnits="userSpaceOnUse" r="1"><stop offset="0" stop-color="#51667b"/><stop offset="1" stop-color="#161c22" stop-opacity="0"/></radialGradient><clipPath id="f"><path d="m0 0h2126v1194h-2126z"/></clipPath><g clip-path="url(#f)"><path d="m0 0h2126v1194h-2126z" fill="#0f1317"/><path d="m0 0h2126v1194h-2126z" fill="url(#e)"/><g fill="#313d49"><path d="m751.88 881.859c52.242 179.681-304.898 349.671-10.444 517.021 294.454 167.36 244.784-439.4 560.324-285.97s633.94-324.032 512.86-660.955c-121.08-336.923-641.35 3.211-867.256-449.48846-225.907-452.69954-851.5184 266.00546-599.349 575.66646 252.169 309.662 351.623 124.044 403.865 303.726z"/><path d="m1955.17 133.771c147.56 115.065-42.41 461.988 294.28 425.23s-58.87-499.5281 286.76-559.920488c345.63-60.392412 324.15-633.884512 28.71-836.102512-295.45-202.218-518.02 378.153-966.23 143.466s-534.5 714.2489-148.76 817.608c385.74 103.359 357.67-105.3451 505.24 9.719z"/><path d="m1735.26 1433.07c-162.95 91.98-410.17-216.77-505.69 108.17-95.51 324.95 483.77 137.71 406.64 479.99-77.14 342.28 460.53 542.95 760.8 347.96 300.26-194.99-149.93-623.59 239.04-947.12s-453.85-768.021-697.57-451.667c-243.72 316.357-40.27 370.677-203.22 462.667z"/><path d="m34.1101 596.798c-45.7643-181.44 317.2429-338.508 28.9805-516.3166-288.2626-177.8089-260.3856 430.3406-570.2186 265.6926-309.833-164.649-645.162 301.088-536.232 642.137 108.917 341.049 641.046 19.789 850.573 480.299s860.511-235.29 619.61-553.797c-240.901-318.506-346.9487-136.574-392.7129-318.015z"/></g><g filter="url(#a)" opacity=".7"><circle cx="283.5" cy="283.5" fill="#e08552" r="283.5" transform="matrix(1 .00000009 .00000009 -1 419.715 -41)"/></g><g filter="url(#b)" opacity=".7"><circle cx="283.5" cy="283.5" fill="#e08552" r="283.5" transform="matrix(1 .00000009 .00000009 -1 979.715 1802)"/></g><g filter="url(#c)" opacity=".7"><circle cx="283.5" cy="283.5" fill="#e08552" r="283.5" transform="matrix(-.258819 .965926 .965926 .258819 2209.32 -46.1729)"/></g><g filter="url(#d)" opacity=".7"><circle cx="283.5" cy="283.5" fill="#e08552" r="283.5" transform="matrix(-.258819 .965926 .965926 .258819 -483.82 537.742)"/></g></g></svg>